<svg xmlns="http://www.w3.org/2000/svg" width="111.011" height="108.201" viewBox="0 0 111.011 108.201"><g transform="translate(-16.537 -15.673)"><path d="M120.593,67.344c-1.27-1.27-2.782-2.268-4.172-3.417a22.686,22.686,0,0,0-28.3-33.984c-.151-.242-.272-.393-.393-.574C80.139,18.757,69.859,14.131,56.949,16.126c-17.143,2.661-28.572,19.955-24.611,36.8.151.756,0,1-.726,1.24A22.623,22.623,0,0,0,43.585,97.67a.966.966,0,0,1,1.149.454,30.578,30.578,0,0,0,41.18,8.526,1.271,1.271,0,0,1,1.481.03c4.928,2.842,9.826,2.6,14.694-.272a2.56,2.56,0,0,1,.968-.272,40.763,40.763,0,0,0,5.442-.272c8.98-1.663,15.117-6.833,17.869-15.48C129.119,81.645,127,73.875,120.593,67.344Z" transform="translate(0 0)" fill="#35a0a8"/><path d="M29.3,58.989a7.128,7.128,0,1,1,7.16-7.123A7.1,7.1,0,0,1,29.3,58.989Z" transform="translate(11.404 58.802)" fill="#35a0a8"/><path d="M23.164,48.379a4.635,4.635,0,0,1,4.6,4.723,4.664,4.664,0,0,1-9.327-.115A4.632,4.632,0,0,1,23.164,48.379Z" transform="translate(3.853 66.179)" fill="#35a0a8"/><path d="M48.138,23.658a18.155,18.155,0,0,1,9.7,2.945,13.018,13.018,0,0,1,6.1,9.539,11.338,11.338,0,0,1-2.83,9.264c-1.4,1.587-3,3-4.538,4.463q-1.356,1.3-2.788,2.522A8.907,8.907,0,0,0,50.565,58.1a8.583,8.583,0,0,1-.281,1.2,4.269,4.269,0,0,1-4.723,3.2,4.365,4.365,0,0,1-4.233-3.695,11.949,11.949,0,0,1,3.217-10.3c1.621-1.714,3.441-3.235,5.152-4.865a33.408,33.408,0,0,0,2.7-2.739,5.336,5.336,0,0,0-2.256-8.387,8.516,8.516,0,0,0-6.5,0,5.806,5.806,0,0,0-2.978,3.075c-.55,1.064-.955,2.2-1.43,3.311a16.051,16.051,0,0,1-.81,1.817,4.749,4.749,0,0,1-6.706,1.572,4.9,4.9,0,0,1-2.355-5.082,14.508,14.508,0,0,1,6.113-9.968C38.916,24.686,42.84,23.649,48.138,23.658Z" transform="translate(25.831 16.157)" fill="#fff"/><path d="M44.313,42.766a5.642,5.642,0,0,1-11.284-.121,5.568,5.568,0,0,1,5.811-5.518A5.5,5.5,0,0,1,44.313,42.766Z" transform="translate(33.371 43.411)" fill="#fff"/></g></svg>