<svg xmlns="http://www.w3.org/2000/svg" width="141" height="142.08" viewBox="0 0 141 142.08"><g transform="translate(-5.09 -5.09)"><path d="M146.09,143c-4.846,5.534-9.065,4.6-13.234-2.48a57.784,57.784,0,0,0-8.192-10.112c-1.579-1.669-2.665-4.779-6.076-2.936a6.753,6.753,0,0,0-3.3,6.842c.294,2.276.876,4.588.62,6.8-.309,2.665-1.584,5.381-4.8,5.587-2.849.181-4.274-1.968-5.308-4.375-3.878-9.023-2.8-15.834,3.888-22.671a7.2,7.2,0,0,0,1.7-8.337,39.853,39.853,0,0,1-1.807-6.631c-.733-3.965-2.236-5.155-6.2-3.034-4.656,2.49-9.329.279-13.648-1.456-4.638-1.862-5.479-.314-5.647,4.119-.314,8.393-1.155,16.773-2.008,25.135-.392,3.83.093,6.315,4.718,6.749,3.33.314,6.962,1.792,6.53,5.908-.4,3.858-3.888,4.937-7.426,5.032-2.668.073-5.338-.018-8.009.025-4.543.073-7.261-2.281-7.065-6.658.311-6.907-3.893-6.716-8.789-6.837-5.057-.125-6.41,2.184-6.259,6.716.12,3.672-1.413,6.616-5.634,6.558-3.968-.058-5.057-3.1-5.25-6.377a89.832,89.832,0,0,1-.01-10.463c.274-4.8,2.751-7.522,7.8-7.7,2.327-.08,5.3.685,6.237-2.545.936-3.207-.08-6.016-2.419-8.44-4.533-4.7-9.921-8.711-12.654-16.477-3.373,7.564-6.332,14.135-9.231,20.736-1.037,2.359.617,3.77,1.988,5.348,4.051,4.663,4.558,18.906.926,23.7a5.093,5.093,0,0,1-5.414,2.091,4.253,4.253,0,0,1-3.569-4.4c-.11-3.724.075-7.454-.033-11.178a5.3,5.3,0,0,0-3.534-4.992c-3.494-1.092-3.451,2.394-4.339,4.244-2.038,4.249-3.627,8.716-5.7,12.943-1.252,2.552-3.436,4.292-6.543,3.062-3-1.187-3.782-3.943-3.057-6.651a116.2,116.2,0,0,1,4.442-12.775c4.031-10.107,8.25-20.141,12.305-30.238,2.138-5.328,5.125-9.326,11.625-9.163,2.829.073,4.641-1.32,4.44-5.449,0-.043.256-2.771.253-2.816-.073.05-.414,2.552-.592,2.839a9.785,9.785,0,0,1-16.6-.474A9.667,9.667,0,0,1,26.379,67.5c5.727-2.013,9.484,1.019,12.15,9.334a2.144,2.144,0,0,1,.1.745c-.03.645-.243,1.88-.233,1.907.005-.035.612-2.394.62-2.429.7-4.324,1.385-7.976,2.131-11.605.482-2.349,1.737-4.39,4.56-4.028,2.721.349,3.714,2.5,3.627,4.942-.105,2.861-.55,5.712-.914,8.561-.427,3.305-1.2,6.372,3.724,7.391,2.846.587,2.414,3.9,2.47,6.347.2,9.005.4,9.218,9.532,9.1a70.232,70.232,0,0,0,7.381-.316c2.921-.351,4.2-2.048,3.519-5.574-.118-4.919-1.027-10.774.552-13.809,1.672-3.218,4.231-1.011,6.46-.665-1.094-11.53-2.472-12.782-11.874-12.923-4.839-.073-7.088,1.948-8.1,6.455-.986,4.4-2.254,10.044-8.117,8.651-5.893-1.4-4.3-6.962-3.441-11.429.5-2.62,1.149-5.218,1.523-7.853.911-6.415,4.031-10.222,11-9.587,3.767.344,4.653-2.111,5.762-5.03C72.99,34.7,67.514,25.73,63.044,16.55c-1.9-3.91-3.694-7.67.316-11.46L68.417,6.1c4.59,10.975,9.246,21.837,23.444,23.506,1.478.173,2.891,1.521,4.184,2.52,3.18,2.462,6.1,3.361,9.038.07a5.916,5.916,0,0,1,4.952-2.091c2.7.279,3.6,1.933,3.722,4.066.306,5.506-8.152,12.682-13.548,11.485-7.758-1.722-7.607-1.692-9.228,6.234-.783,3.83.048,7.384.949,10.928,2.081,8.179,3.792,16.349,3.531,24.887-.148,4.829,2.414,6.3,6.671,3.953a107.866,107.866,0,0,0,9.126-6.249l-.083.053c9.432-.213,12.968,2.239,15.483,11.226,1.315,4.7,2.281,9.51,3.26,14.3,2.234,10.92,6.867,20.424,15.824,27.452Z" transform="translate(0)" fill="#35a0a8"/><path d="M54.241,49.406C46.032,47.814,43.2,45.146,43,38.965c-.143-4.327,1.486-7.534,5.589-9.226,4.088-1.684,7.637-.637,10.511,2.527,2.9,3.195,3.28,6.844,1.466,10.777-1.358,2.949-4.119,4.432-6.407,6.412Z" transform="translate(57.223 36.01)" fill="#35a0a8"/><path d="M52.587,15.262c-.151,4.959-4.224,9.073-8.94,9.025a9.6,9.6,0,0,1-9.427-9.331A9.587,9.587,0,0,1,43.6,5.614,9.393,9.393,0,0,1,52.587,15.262Z" transform="translate(43.98 0.791)" fill="#35a0a8"/><path d="M42.63,43.612A8.592,8.592,0,0,1,34.3,52.024a8.943,8.943,0,0,1-8.787-8.7,8.935,8.935,0,0,1,8.742-8.706A8.757,8.757,0,0,1,42.63,43.612Z" transform="translate(30.832 44.582)" fill="#35a0a8"/></g></svg>