<svg xmlns="http://www.w3.org/2000/svg" width="119.276" height="89.426" viewBox="0 0 119.276 89.426"><g transform="translate(-4.32 -13.776)"><g transform="translate(8.191 13.776)"><path d="M97.23,17.335A29.473,29.473,0,0,0,62.9,22.122c-1.145,1.1-2.2,2.29-3.183,3.344-2.84-2.4-5.428-5.061-8.474-7.054C33.378,6.754,9.033,18.3,6.583,39.482c-.115,1.076-.366,2.153-.573,3.229v.6C7.522,59.338,18.24,69.851,28.958,79.9c8.749,8.245,18.688,15.23,28.193,22.65a3.7,3.7,0,0,0,3.321.412c15.6-9.642,30.231-20.521,41.522-35.224,4.489-5.84,8.726-11.909,10.1-19.444A29.113,29.113,0,0,0,97.23,17.335ZM21.836,33.321c-4.764,7.123-5.726,14.932-4.26,23.269-4.443-6.756-6.5-13.856-3.138-21.689,1.4-3.275,3.527-4.649,6.092-4.214C22.2,30.985,22.912,31.7,21.836,33.321Zm.481-5.039a2.637,2.637,0,0,1-.87.069l-.275.481c-1.076-.6-2.153-1.214-3.229-1.809.939-.916,1.878-1.832,2.863-2.68a1.305,1.305,0,0,1,.847-.206c1.855.023,4.283-1.031,4.924,1.6C26.691,26.221,23.828,27.435,22.317,28.283Z" transform="translate(-6.01 -13.776)" fill="#35a0a8"/></g><g transform="translate(4.32 25.988)"><path d="M72.3,61.171l2.563-1.883s.341-.186.371-.156c1.175,1.143,3.09,0,4.138,1.452l.495.186c-1.39-2.439-2.657-4.725-3.985-6.919a3.266,3.266,0,0,0-1.358-.925l-5.652-2.719a5.862,5.862,0,0,1-2.439-2.471,10.1,10.1,0,0,1-.463-10.624,10.806,10.806,0,0,0,.492-1.482,35.207,35.207,0,0,1-3.52.928,4.817,4.817,0,0,0-3.891,2.84,2.377,2.377,0,0,1-.433.648,3.091,3.091,0,0,0-.495,3.985,2.718,2.718,0,0,1-2.377,3.676,28.246,28.246,0,0,1-3.891-.589,1.17,1.17,0,0,1-.71-.863c0-.957-.524-1.113-1.328-1.175L28.626,43.66,7.781,42.3a10.79,10.79,0,0,0-2.009.277L4.32,41.807,5.8,41.251a14.477,14.477,0,0,0,2.407.589l27.611,1.7,14.639.866c.463-.866.866-1.576,1.2-2.318,1.049-2.286,2.192-4.507,3.09-6.855a7.379,7.379,0,0,1,3.458-4.015c1.976-1.081,3.921-2.256,5.806-3.461A44.257,44.257,0,0,1,74.8,22.629c1.39-.433,1.452-.465,1.885.9a5.309,5.309,0,0,0,4.262,4.168,4.352,4.352,0,0,0,4.416-1.729c.9-1.173,1.143-1.2,2.5-.463a57.011,57.011,0,0,1,8.277,6.7c2.5,2.038,5,4.047,7.567,6.023a3.875,3.875,0,0,0,1.853.524,2.5,2.5,0,0,1,2.015,2.906c-.011.062-.025.121-.039.183a3.642,3.642,0,0,0,0,3.612c1.573,3.367,3.087,6.827,4.569,10.224a9.1,9.1,0,0,0,.96,1.234c0,.186.245.527.153.648a1.02,1.02,0,0,1-.71.341,2.241,2.241,0,0,1-.4-.524,12.038,12.038,0,0,0-.4-1.823c-1.667-3.706-3.367-7.411-5.064-11.087-.218-.495-.371-1.051-1.143-.957a.814.814,0,0,1-.589-.433c-.4-.9-1.2-1.051-2.068-1.266a13.251,13.251,0,0,1-3.09-1.2c-3.953-2.254-7.874-4.571-11.765-6.919-.742-.431-1.113-.4-1.608.309-1.2,1.823-2.5,3.584-3.8,5.343a1.822,1.822,0,0,0-.247,2.07A38.447,38.447,0,0,0,84.559,45.7c2.348,3.49,4.878,6.887,7.258,10.377a12.615,12.615,0,0,1,1.452,3.09c.8,2.315,1.45,4.663,2.222,6.978a6.429,6.429,0,0,0,.8,1.3h0a18.16,18.16,0,0,0,7.535,4.633c6.179,2.13,12.356,4.507,18.533,6.793l1.234.465a8.116,8.116,0,0,1-3.09,3.735,3.074,3.074,0,0,1-2.283,0c-2.038-.772-2.009-.834-3.49.71s-1.667,1.576-3.49.465c-8.987-5.5-17.944-11.087-26.993-16.524C80.667,65.557,76.9,63.7,73.224,61.728Z" transform="translate(-4.32 -14.908)" fill="#fff"/><path d="M36.228,26.118a7.788,7.788,0,0,1,2.533-5.961,3.828,3.828,0,0,1,6.177,1.328,7.717,7.717,0,0,1-1.39,8.215,3.923,3.923,0,0,1-6.919-1.576A13.3,13.3,0,0,1,36.228,26.118Z" transform="translate(36.845 -19.108)" fill="#fff"/></g></g></svg>