<svg xmlns="http://www.w3.org/2000/svg" width="120.87" height="101.847" viewBox="0 0 120.87 101.847"><g transform="translate(-8.345 -11.717)"><g transform="translate(8.345 11.717)"><path d="M129.124,41.2c-.62-7.618-4.591-10.348-12.06-8.412C110.488,34.5,104.9,38.145,99.5,42.066c-2.481,1.811-4.864,3.772-7.742,6.03V44.423c0-6.973.05-13.921-.025-20.894A11.52,11.52,0,0,0,80.164,11.791q-30.039-.149-60.1,0A11.02,11.02,0,0,0,9.516,18.839a11.448,11.448,0,0,0,1.638,12.606,11.42,11.42,0,0,0,12.308,4,46.316,46.316,0,0,0,4.392-1.563V37.1q0,31.49,0,62.956a18.423,18.423,0,0,0,.372,4.541c1.439,5.683,5.98,8.933,12.68,8.933,19.083.05,38.165.025,57.248.025a22.082,22.082,0,0,0,3.127-.223,11.871,11.871,0,0,0,9.827-10.472c.248-2.879-.422-3.648-3.251-3.648-4.293-.025-8.586,0-12.879-.025-1.017,0-2.035-.124-3.226-.223,0-4.764.2-9.256-.074-13.723-.2-3.276.844-5.037,3.722-6.923,5.707-3.747,10.869-8.338,16.254-12.556,4.045-3.152,8.313-6.055,12.11-9.5C128.107,52.314,129.621,47,129.124,41.2ZM20.509,31.122a7.308,7.308,0,0,1-.05-14.616,7.548,7.548,0,0,1,7.32,7.3A7.579,7.579,0,0,1,20.509,31.122Zm26.428,71.343a7.084,7.084,0,0,1-7.618,6.253,7.174,7.174,0,0,1-6.725-7.221c-.124-7.643-.074-15.261-.074-22.9,0-16.676.074-33.376-.05-50.052-.025-3.921-.645-7.817-1.017-11.986,0,0,.695-.074,1.414-.074q22.445-.037,44.915-.025c6.626,0,9.281,2.606,9.281,9.107.025,8.412.05,16.8,0,25.187a6.161,6.161,0,0,1-.72,3.2c-4.963,6.9-6.229,14.79-6.675,23a25.624,25.624,0,0,1-1.489,5.807c-.323.993-1.266,1.861-1.315,2.829a11.848,11.848,0,0,0,.769,3.474c1.191-.471,2.68-.67,3.474-1.514,1.067-1.141,1.439-2.9,2.407-4.169a12.428,12.428,0,0,1,2.655-2.109c.223.2.447.4.695.6V99.19H83.117c-10.67,0-21.366.074-32.036-.05C48.525,99.115,47.285,99.736,46.937,102.465ZM102.4,103.93h3.151c-1.191,3.4-3.4,4.864-7.395,4.889-5.434.074-10.844.025-16.279.025H49.89c1.911-4.938,1.911-4.938,6.5-4.938Q79.4,103.942,102.4,103.93Zm21.986-59.755c-.422,4.715-2.829,8.239-6.4,11.018q-11.576,9.045-23.3,17.916a58.4,58.4,0,0,1-6.03,3.573l-.695-.769c2.928-3.6,5.707-7.345,8.809-10.819a77.388,77.388,0,0,1,19.728-16.279c1.613-.943,2.258-2.134,1.39-3.722s-2.308-1.34-3.722-.546C105.352,49.51,97.982,56.21,91.406,63.8c-2.035,2.357-3.946,4.814-5.906,7.221.471-6.3,2.209-11.936,6.75-16.353,7.147-6.948,14.839-13.127,24.294-16.7C122.871,35.589,125.03,37.4,124.385,44.175Z" transform="translate(-8.345 -11.717)" fill="#565d63"/><path d="M65.873,74.126c.447-8.214,1.712-16.1,6.675-23a6.161,6.161,0,0,0,.72-3.2c.05-8.387.025-16.775,0-25.187,0-6.5-2.655-9.107-9.281-9.107q-22.482,0-44.915.025c-.72,0-1.414.074-1.414.074.372,4.169.993,8.065,1.017,11.986.124,16.676.05,33.376.05,50.052,0,7.643-.05,15.261.074,22.9a7.174,7.174,0,0,0,6.725,7.221,7.084,7.084,0,0,0,7.618-6.253c.347-2.73,1.588-3.35,4.144-3.325,10.67.124,21.366.05,32.036.05h3.747V79.039c-.248-.2-.471-.4-.695-.6a12.428,12.428,0,0,0-2.655,2.109c-.968,1.266-1.34,3.027-2.407,4.169-.794.844-2.283,1.042-3.474,1.514a11.848,11.848,0,0,1-.769-3.474c.05-.968.993-1.836,1.315-2.829A25.624,25.624,0,0,0,65.873,74.126ZM31.553,33.5q15,.037,30.026,0c1.687,0,3.176.223,3.226,2.283.025,2.233-1.588,2.457-3.375,2.457-3.3-.025-6.6-.025-9.9-.025H46.566c-4.938.025-9.9.025-14.864.025-1.663,0-3.449.05-3.5-2.283C28.154,33.678,29.767,33.5,31.553,33.5ZM31.4,48.393q15.15.037,30.3,0c1.737,0,3.151.347,3.1,2.407-.05,2.035-1.539,2.333-3.226,2.333H46.715c-1.266,0-2.506,0-3.772-.025-3.772,0-7.593,0-11.39.025-1.737,0-3.4-.124-3.35-2.432C28.228,48.641,29.717,48.393,31.4,48.393ZM45.078,82.786c-4.74.223-9.529.223-14.293,0-.893-.05-1.737-1.464-2.606-2.233.844-.794,1.638-2.134,2.606-2.258a52.371,52.371,0,0,1,7.122-.1,52.737,52.737,0,0,1,7.147.1c.968.124,1.737,1.439,2.606,2.209C46.815,81.3,45.971,82.737,45.078,82.786ZM61.8,68.021c-5.137-.025-10.273,0-15.41,0-4.963,0-9.926-.025-14.864,0-1.737,0-3.424-.174-3.35-2.457.074-2.06,1.588-2.283,3.251-2.283q15.15.037,30.3,0c1.737,0,3.1.372,3.052,2.432C64.706,67.575,63.441,68.021,61.8,68.021Z" transform="translate(5.45 -8.887)" fill="#fff"/><path d="M39.437,55.94c.467-6.291,2.206-11.926,6.74-16.338,7.147-6.953,14.847-13.135,24.3-16.705,6.328-2.39,8.489-.566,7.859,6.2-.437,4.71-2.841,8.229-6.417,11.02Q60.331,49.162,48.624,58.032a58.981,58.981,0,0,1-6.04,3.561l-.692-.749c2.923-3.621,5.71-7.363,8.8-10.839A78.435,78.435,0,0,1,70.423,33.723c1.628-.928,2.273-2.124,1.395-3.712s-2.313-1.333-3.715-.541C59.287,34.44,51.929,41.138,45.34,48.734,43.306,51.079,41.4,53.535,39.437,55.94Z" transform="translate(37.718 3.363)" fill="#35a0a8"/><path d="M40.281,26.367q-7.437,0-14.869,0c-1.668,0-3.457.05-3.506-2.28-.05-2.266,1.571-2.457,3.345-2.452q15.012.037,30.024,0c1.69,0,3.191.216,3.226,2.276.04,2.236-1.568,2.477-3.353,2.464C50.192,26.342,45.237,26.365,40.281,26.367Z" transform="translate(11.743 2.976)" fill="#565d63"/><path d="M40.429,32.365c-5.052,0-10.1-.01-15.155.007-1.737,0-3.415-.117-3.372-2.422.037-2.067,1.521-2.315,3.206-2.31q15.153.034,30.309,0c1.735,0,3.137.355,3.087,2.41s-1.519,2.343-3.206,2.333C50.343,32.347,45.385,32.367,40.429,32.365Z" transform="translate(11.739 11.865)" fill="#565d63"/><path d="M40.1,38.366c-4.953,0-9.906,0-14.859,0-1.737,0-3.41-.154-3.333-2.457.067-2.06,1.563-2.281,3.238-2.276q15.146.037,30.289,0c1.745,0,3.109.385,3.05,2.439-.052,1.856-1.34,2.3-2.958,2.3C50.381,38.353,45.237,38.366,40.1,38.366Z" transform="translate(11.738 20.756)" fill="#565d63"/><path d="M31.638,39.687a52.234,52.234,0,0,1,7.139.107c.955.132,1.744,1.444,2.611,2.221-.859.794-1.685,2.233-2.581,2.276-4.757.228-9.539.226-14.3,0-.906-.042-1.747-1.459-2.616-2.241.864-.787,1.65-2.117,2.606-2.253A51.446,51.446,0,0,1,31.638,39.687Z" transform="translate(11.726 29.611)" fill="#565d63"/></g></g></svg>