<svg xmlns="http://www.w3.org/2000/svg" width="109.938" height="87.986" viewBox="0 0 109.938 87.986"><g transform="translate(-0.2 -0.2)"><g transform="translate(0.2 0.2)"><path d="M68.592,18.361V71.409c0,.183,0,.183-.183.366a10.919,10.919,0,0,1-7.317,9.146,10.551,10.551,0,0,1-2.561.549H50.3V8.3h7.683A10.943,10.943,0,0,1,68.41,17.446,1.989,1.989,0,0,0,68.592,18.361Z" transform="translate(41.345 6.517)" fill="#35a0a7"/><path d="M78.153,8.3V81.47H12.3V8.3H78.153Z" transform="translate(9.834 6.517)" fill="#35a0a7"/><path d="M54.126,8.066c.183,2.012,0,4.024,0,6.037H48.639V8.615a2.784,2.784,0,0,0-2.927-2.927H29.432a2.742,2.742,0,0,0-2.744,2.927v5.3H21.2v-5.3A8.355,8.355,0,0,1,29.432.2H45.895A8.379,8.379,0,0,1,54.126,8.066Z" transform="translate(17.214 -0.2)" fill="#35a0a7"/><path d="M18.492,8.3V81.287H10.261c-.915-.183-1.646-.366-2.561-.549A11.276,11.276,0,0,1,.2,70.677v-51.4A10.817,10.817,0,0,1,7.517,8.849,10.358,10.358,0,0,1,10.81,8.3h7.683Z" transform="translate(-0.2 6.517)" fill="#35a0a7"/></g><rect width="14.451" height="9.695" transform="translate(34.394 32.226) rotate(-17.687)" fill="#f7f7f7"/><path d="M33.6,32.739,40.734,20.3l8.232,4.756L41.832,37.495a.672.672,0,0,1-.549-.183c-.366-.366.183-1.1,0-1.28s-.915.732-1.1.549.366-1.1,0-1.28c-.183-.183-.732.732-1.1.732-.183-.183.183-1.1,0-1.28s-.915.732-1.1.549.183-1.1,0-1.1c-.183-.183-.732.732-1.1.732-.183-.183.183-1.1,0-1.1-.183-.183-.732.732-.915.549s.183-1.1,0-1.28-.915.732-1.1.549.183-.915,0-.915c-.183-.183-.549.366-1.1.366C33.966,32.922,33.783,32.922,33.6,32.739Z" transform="translate(27.697 16.668)" fill="#d8d8d8"/><path d="M35.365,43.733l-4.756.732a4.906,4.906,0,0,1-5.488-4.024h0a4.906,4.906,0,0,1,4.024-5.488l4.756-.732a4.906,4.906,0,0,1,5.488,4.024h0A4.8,4.8,0,0,1,35.365,43.733Z" transform="translate(20.627 28.173)" fill="#d8d8d8"/><path d="M39.4,29.5" transform="translate(32.506 24.297)" fill="#fff"/></g></svg>