<svg xmlns="http://www.w3.org/2000/svg" xmlns:xlink="http://www.w3.org/1999/xlink" width="165.029" height="165.03" viewBox="0 0 165.029 165.03"><defs><style>.a{fill:none;}.b{clip-path:url(#a);}.c{fill:#61b5bb;}.d{fill:#fefefe;}.e{fill:#006d99;}.f{fill:#0088bf;}.g{fill:#0086bd;}.h{fill:#0677a4;}.i{fill:#0a749e;}.j{fill:#0578a6;}.k{fill:#1e81a9;}.l{fill:#1a7fa7;}.m{fill:#80bbd3;}.n{fill:#65acc9;}.o{fill:#0e77a0;}.p{fill:#1d80a8;}.q{fill:#1581ad;}.r{fill:#0277a6;}.s{fill:#0079aa;}.t{fill:#0481b3;}.u{fill:#379dc6;}.v{fill:#0b759e;}.w{fill:#0077a7;}.x{fill:#2286af;}.y{fill:#0c7ba8;}.z{fill:#0381b3;}.aa{fill:#1380ac;}.ab{fill:#0480b2;}.ac{fill:#1f84ad;}.ad{fill:#0378a6;}.ae{fill:#0e7ba8;}.af{fill:#0b7ba8;}.ag{fill:#0083b9;}.ah{fill:#0380b2;}.ai{fill:#288db6;}.aj{fill:#278db6;}.ak{fill:#07729c;}.al{fill:#1c8ebc;}.am{fill:#1989b7;}.an{fill:#1390c3;}.ao{fill:#108ec2;}.ap{fill:#0177a7;}.aq{fill:#03709a;}.ar{fill:#1d8ebc;}.as{fill:#228ab5;}.at{fill:#0087bf;}.au{fill:#197ea6;}.av{fill:#1a7ea7;}.aw{fill:#0378a7;}.ax{fill:#2387b0;}.ay{fill:#1f85ae;}.az{fill:#0087bd;}.ba{fill:#0275a2;}</style><clipPath id="a"><circle class="a" cx="82.515" cy="82.515" r="82.515"/></clipPath></defs><g transform="translate(-17.619 -19.786)"><g class="b" transform="translate(17.619 19.786)"><path class="c" d="M191.428,152.13a22.853,22.853,0,0,0-.373,4.588,16.6,16.6,0,0,1-.292,1.809c.068.572-.106,1.125-.087,1.7a6.539,6.539,0,0,0,.112,1.591,3.119,3.119,0,0,1-.112,1.1c-.261.665-.528,1.324-.746,2.008-.18.908-.6,1.7-.777,2.58a10.163,10.163,0,0,0-.789,3.114c-1.946,5.93-5.98,10.344-10.611,14.273a4.023,4.023,0,0,0-1.747,1.542c-2.978,2.667-6.614,4.016-10.319,5.247a8.176,8.176,0,0,0-2.275.4c-.858.025-1.654.528-2.511.553-1.107.417-2.294.242-3.419.528a6.22,6.22,0,0,1-1.125.044,4.552,4.552,0,0,0-.553-.106,1.8,1.8,0,0,0-.572.062h-.044a2.657,2.657,0,0,0-.709.242c-.553.025-1.125,0-1.678,0h-.858a2.759,2.759,0,0,1-.6-.044.408.408,0,0,1-.174,0c-.044,0-.068-.019-.112-.019a8.809,8.809,0,0,0-3.152-.025.185.185,0,0,0-.112.025h-.025l-.3.062H61.394c-.535,0-1.082.025-1.61-.019a.605.605,0,0,0-.2-.044l-.093-.025a23.471,23.471,0,0,0-3.239-.112H54.22c-.218,0-.46,0-.7-.019h-.044a5.55,5.55,0,0,0-1.349-.155h-.019a3.387,3.387,0,0,0-1.063.155,3.8,3.8,0,0,1-.839-.025c-.945-.286-1.983-.174-2.928-.5a11.722,11.722,0,0,0-2.63-.336,3.279,3.279,0,0,1-.814-.174,7.217,7.217,0,0,0-4.3-1.411c-5.825-2.051-10.145-6.067-14.049-10.636a3.955,3.955,0,0,0-1.523-1.759A27.8,27.8,0,0,1,18.2,166.8c-.068-.665-.068-1.349-.155-2.008-.242-.864-.18-1.741-.441-2.6a16.157,16.157,0,0,0-.2-1.765c-.044-.6-.025-1.187-.044-1.784v-.379c-.025-.3-.087-.615-.137-.926-.019-.193-.044-.373-.044-.547v-2.561a22.385,22.385,0,0,0-.131-3.7V150.5l-.019-.062a.531.531,0,0,0-.025-.2c-.044-.926-.025-1.853-.025-2.779V65.747a1.474,1.474,0,0,1-.019-.286v-.2a6.1,6.1,0,0,0-.174-2.511v-.4c.771-1.237.218-2.586.392-3.9V56.4a4.483,4.483,0,0,0,0-.578c0-.087.025-.174.025-.261a4.387,4.387,0,0,0,.044-.485,3.615,3.615,0,0,0,.087-.995v-.025a1.984,1.984,0,0,0-.131-.615c0-.2,0-.373.019-.572.292-.995.155-2.051.51-3.046a19.148,19.148,0,0,1,.329-1.94c.093-.64.155-1.305.242-1.94a2.747,2.747,0,0,1,.224-.839,5.162,5.162,0,0,0,1.144-3.245,25.092,25.092,0,0,1,5.85-9.461A30.547,30.547,0,0,1,30.6,27.61,3.839,3.839,0,0,0,32.139,26.3c2.275-2.138,5.073-3.264,7.92-4.389a12.9,12.9,0,0,0,2.76-.684c.746-.218,1.5-.441,2.269-.684a30.786,30.786,0,0,1,5.116-.883,23.385,23.385,0,0,1,2.474-.3c.553-.044,1.1-.044,1.629-.044a29.334,29.334,0,0,0,4.793-.18c.572,0,1.144-.019,1.716,0,.771-.019,1.548-.019,2.319-.019h84.151c.485,0,.97,0,1.461.019h1.013a20.446,20.446,0,0,0,3.991.18c.528,0,1.082,0,1.61.044a20.128,20.128,0,0,0,3.065.149,11.436,11.436,0,0,1,1.523.18,12.874,12.874,0,0,0,2.518.752c.945.149,1.828.572,2.754.789a14.791,14.791,0,0,0,2.978.908,30.632,30.632,0,0,1,5.582,2.8,4.072,4.072,0,0,0,1.983,1.324c4.1,2.779,7.174,6.6,10.151,10.456a18.505,18.505,0,0,1,2.207,4.7,4.266,4.266,0,0,0,.771,1.964,4,4,0,0,1,.46,1.343,15.3,15.3,0,0,0,.242,1.9,9.676,9.676,0,0,0,.883,2.536,3.57,3.57,0,0,1,.242,1.368,6.441,6.441,0,0,0-.062,1.828c.155.839.46,1.61.547,2.474a2.346,2.346,0,0,1,0,.591,12.454,12.454,0,0,0,.224,5.029c.044.665.019,1.324.019,1.989v84.773C191.447,148.867,191.5,150.5,191.428,152.13Z" transform="translate(-21.939 -23.269)"/><path class="d" d="M191.447,147.213c0,1.654.05,3.282-.019,4.917a22.853,22.853,0,0,0-.373,4.588,16.6,16.6,0,0,1-.292,1.809c.068.572-.106,1.125-.087,1.7a6.539,6.539,0,0,0,.112,1.591,3.119,3.119,0,0,1-.112,1.1c-.261.665-.528,1.324-.746,2.008-.18.908-.6,1.7-.777,2.58a10.163,10.163,0,0,0-.789,3.114c-1.946,5.93-5.98,10.344-10.611,14.273a4.023,4.023,0,0,0-1.747,1.542c-2.978,2.667-6.614,4.016-10.319,5.247a8.176,8.176,0,0,0-2.275.4c-.858.025-1.654.528-2.511.553-1.107.417-2.294.242-3.419.528a6.22,6.22,0,0,1-1.125.044,4.552,4.552,0,0,0-.553-.106,1.8,1.8,0,0,0-.572.062h-.044a2.657,2.657,0,0,0-.709.242c-.553.025-1.125,0-1.678,0h-.062a.564.564,0,0,0-.025.2c-.155-.062-.218-.131-.174-.2,0-.062.068-.087.2-.131l1.853-.131h.019l.025-.025a2.419,2.419,0,0,1,1.7-.242c.329-.019.684-.068,1.038-.112a35.028,35.028,0,0,0,3.643-.746.65.65,0,0,0,.174-.044l.068-.025a9,9,0,0,0,1.828-.441.271.271,0,0,0,.131-.044c.883-.068,1.7-.466,2.561-.572,3.444-1.411,6.925-2.692,9.841-5.122.591-.528.97-1.318,1.828-1.5,2.648-2.754,5.539-5.29,7.565-8.6a38.441,38.441,0,0,0,2.76-5.4c.131-.839.5-1.591.659-2.406v-.019c.044-.068.068-.137.112-.2a7.245,7.245,0,0,0,.64-2.449c.044-.068.087-.155.131-.242l.044-.068c.286-.659.155-1.48.665-2.076l.062-1.075c-.286-.466.068-.839.155-1.237a.271.271,0,0,0,.044-.131c.025-.535-.019-1.082.044-1.61v-.18a9.627,9.627,0,0,0,.292-1.411.184.184,0,0,0,.019-.155.831.831,0,0,0,.044-.242,27.43,27.43,0,0,1,.068-2.953c0-.044.019-.068.019-.112a3.333,3.333,0,0,0,.093-.485,38.941,38.941,0,0,0,.218-5.955V62.328a12.411,12.411,0,0,0-.112-2.25,7.324,7.324,0,0,0-.106-.727v-.019l-.137-.864c-.2-1.144.155-2.337-.218-3.487v-.019l-.025-.025a.782.782,0,0,1-.106-.218,11.29,11.29,0,0,1-.093-2.25.732.732,0,0,0-.044-.242c-.131-.528-.5-.995-.174-1.567.174-.485-.242-.771-.4-1.15-.174-.858-.311-1.741-.553-2.6-.019-.044-.019-.087-.044-.137a.212.212,0,0,0-.019-.106,19.363,19.363,0,0,1-.485-2.076c.062-.373-.2-.615-.423-.858-.311-.709-.5-1.436-.746-2.138-2.207-5.427-6.005-9.623-10.437-13.3-.528-.441-1.038-.951-1.542-1.436-.727-.261-1.262-.9-2.008-1.125a20.174,20.174,0,0,0-5.47-2.779l-.044-.019a5.377,5.377,0,0,0-2.406-.995c-.068-.025-.131-.068-.2-.087a6.935,6.935,0,0,0-2.424-.64c-.112-.044-.242-.068-.354-.112h-.025a5.022,5.022,0,0,0-2.841-.485c-.311-.112-.64-.242-.951-.373a12.5,12.5,0,0,0-2.449-.18,2.624,2.624,0,0,0-.329-.155.949.949,0,0,1-.242-.087,5.811,5.811,0,0,0-1.61-.112h-.311a16.076,16.076,0,0,1-2.319-.062l-.087-.025a4.739,4.739,0,0,0-.5-.087,37.933,37.933,0,0,0-5.937-.218H67.038a.711.711,0,0,1-.2,0c-2.8.106-5.6-.242-8.38.218a2.656,2.656,0,0,0-.578.087h-.062a25.225,25.225,0,0,1-3.419.087h-.423a4.567,4.567,0,0,0-1.784.2,1.63,1.63,0,0,0-.267.112l-.062.025a9.34,9.34,0,0,1-1.392.062H50.3c-1.635.4-3.376.4-4.986,1.038-.044,0-.068.025-.112.025a.573.573,0,0,0-.2.044,8.893,8.893,0,0,0-2.269.64c-.068.019-.112.062-.18.087-.771.242-1.585.4-2.362.727a33.357,33.357,0,0,0-7.808,4.3c-.416.373-.615,1.038-1.3,1.082-4.389,4.059-8.473,8.336-10.742,14.006a5.807,5.807,0,0,1-1.15,3.108c-.044.267-.087.535-.106.777-.311.528-.025,1.125-.242,1.672a.981.981,0,0,0-.112.267,17.584,17.584,0,0,0-.485,1.871.446.446,0,0,1-.044.155.635.635,0,0,1-.044.18c.131,1.032-.4,1.94-.535,2.934a.332.332,0,0,0-.019.348c.3.709-.087,1.305-.2,1.964,0,.044-.025.087-.025.137-.2.373.267,1.032-.2,1.318a.772.772,0,0,1-.392.112.6.6,0,0,0,.392-.5,4.483,4.483,0,0,0,0-.578c0-.087.025-.174.025-.261a4.387,4.387,0,0,0,.044-.485,1.878,1.878,0,0,1,.087-.995v-.025a1.984,1.984,0,0,0-.131-.615c0-.2,0-.373.019-.572.292-.995.155-2.051.51-3.046a19.148,19.148,0,0,1,.329-1.94c.093-.64.155-1.305.242-1.94a2.747,2.747,0,0,1,.224-.839,5.162,5.162,0,0,0,1.144-3.245,25.092,25.092,0,0,1,5.85-9.461A30.547,30.547,0,0,1,30.6,27.61,3.839,3.839,0,0,0,32.139,26.3c2.275-2.138,5.073-3.264,7.92-4.389a12.9,12.9,0,0,0,2.76-.684c.746-.218,1.5-.441,2.269-.684a30.786,30.786,0,0,1,5.116-.883,23.385,23.385,0,0,1,2.474-.3c.553-.044,1.1-.044,1.629-.044a29.334,29.334,0,0,0,4.793-.18c.572,0,1.144-.019,1.716,0,.771-.019,1.548-.019,2.319-.019h84.151c.485,0,.97,0,1.461.019.348-.019.684,0,1.013,0a20.446,20.446,0,0,0,3.991.18c.528,0,1.082,0,1.61.044a20.128,20.128,0,0,0,3.065.149,11.436,11.436,0,0,1,1.523.18,12.874,12.874,0,0,0,2.518.752c.945.149,1.828.572,2.754.789a14.791,14.791,0,0,0,2.978.908,30.632,30.632,0,0,1,5.582,2.8,4.072,4.072,0,0,0,1.983,1.324c4.1,2.779,7.174,6.6,10.151,10.456a18.505,18.505,0,0,1,2.207,4.7,4.266,4.266,0,0,0,.771,1.964,4,4,0,0,1,.46,1.343,15.3,15.3,0,0,0,.242,1.9,9.676,9.676,0,0,0,.883,2.536,3.57,3.57,0,0,1,.242,1.368,6.441,6.441,0,0,0-.062,1.828c.155.839.46,1.61.547,2.474a2.346,2.346,0,0,1,0,.591,12.454,12.454,0,0,0,.224,5.029c.044.665.019,1.324.019,1.989Z" transform="translate(-21.939 -23.269)"/><path class="d" d="M54.556,78.891a3.437,3.437,0,0,0-.336-.4c-.218,0-.46,0-.7-.019h-.044a4.174,4.174,0,0,1-1.349-.155h-.019a3.387,3.387,0,0,0-1.063.155,3.8,3.8,0,0,1-.839-.025c-.945-.286-1.983-.174-2.928-.5a11.722,11.722,0,0,0-2.63-.336,3.279,3.279,0,0,1-.814-.174,7.217,7.217,0,0,0-4.3-1.411c-5.825-2.051-10.145-6.067-14.049-10.636a3.955,3.955,0,0,0-1.523-1.759A27.8,27.8,0,0,1,18.2,52.092c-.068-.665-.068-1.349-.155-2.008-.242-.864-.18-1.741-.441-2.6a16.156,16.156,0,0,0-.2-1.765c-.044-.6-.025-1.187-.044-1.784v-.379a1.7,1.7,0,0,1-.137-.926c-.019-.193-.044-.373-.044-.547v-.416a.516.516,0,0,0-.392-.553.6.6,0,0,1,.392.087c.336.174.093.659.2.97a.245.245,0,0,0,.025.131.444.444,0,0,0,.019.155,10.547,10.547,0,0,0,.311,1.411v.18c.044.547,0,1.075.044,1.629,0,.044.025.068.025.112h.019a6.85,6.85,0,0,1,.336,1.386v.2a8.457,8.457,0,0,0,.572,2.779c.019.093.062.18.087.267v.044c.218.51-.044,1.125.267,1.635.591,3.531,2.443,6.527,4.345,9.461A6.619,6.619,0,0,0,24.6,63.232c.547.6,1.343.97,1.523,1.853,2.8,2.692,5.315,5.713,8.734,7.677a26.122,26.122,0,0,0,4.874,2.58,11.042,11.042,0,0,1,4.3,1.542c.286.025.553.044.814.068a11.138,11.138,0,0,1,1.94.286l.068.025a.65.65,0,0,0,.174.044c1.082.329,2.207.417,3.27.746.242,0,.485.025.746.025a1.043,1.043,0,0,1,.821-.112c.261.044.5.112.771.155a3.309,3.309,0,0,0,.485.087,5.734,5.734,0,0,0,.858.087.453.453,0,0,0,.18.025h.019a.517.517,0,0,1,.329.174C54.6,78.562,54.618,78.692,54.556,78.891Z" transform="translate(-21.939 91.439)"/><path class="e" d="M17.132,27.437q.019,27.554.044,55.1c.006,6.036-.031,12.072-.044,18.108-.112.274-.224.274-.342.006V27.431C16.908,27.163,17.02,27.163,17.132,27.437Z" transform="translate(-21.944 19.051)"/><path class="f" d="M17.219,40.231c.609,1.262.267,2.6.323,3.916a.506.506,0,0,1-.752-.019v-.385a.513.513,0,0,0,0-.783V40.629C16.939,40.5,16.958,40.231,17.219,40.231Z" transform="translate(-21.944 86.864)"/><path class="g" d="M17.524,25.572c-.193,1.312.69,2.828-.734,3.916V27.542c.236-.218.186-.51.2-.777-.012-.274.044-.566-.2-.783V25.6A.489.489,0,0,1,17.524,25.572Z" transform="translate(-21.944 9.596)"/><path class="h" d="M17.537,24.985c-.019,1.013-.019,2.051-.019,3.09h-.336a2.754,2.754,0,0,0-.392.019V26.526a.6.6,0,0,0,.392-.5,4.483,4.483,0,0,0,0-.578c0-.087.025-.174.025-.261a.726.726,0,0,1,.112-.242.487.487,0,0,0,.087.019A.245.245,0,0,0,17.537,24.985Z" transform="translate(-21.939 7.106)"/><path class="i" d="M17.132,31.028c-.112,0-.23-.006-.342-.006V26.738q.177-.392.354,0Z" transform="translate(-21.944 15.46)"/><path class="i" d="M16.79,39.047c.112,0,.23-.006.342-.006l.012,4.289q-.177.392-.354,0Z" transform="translate(-21.944 80.657)"/><path class="j" d="M17.58,43.576c-.044.106-.087.174-.155.174-.044,0-.087-.044-.149-.131a.757.757,0,0,1-.093-.242V42.96a.516.516,0,0,0-.392-.553V40.859a2.075,2.075,0,0,1,.392.025,1.689,1.689,0,0,1,.354,0C17.537,41.767,17.562,42.668,17.58,43.576Z" transform="translate(-21.939 90.14)"/><path class="k" d="M16.79,39.731c.118,0,.236.006.354,0l.075,3.108-.429.4Z" transform="translate(-21.944 84.256)"/><path class="l" d="M17.144,28.859H16.79V26.136C17.486,26.969,17.126,27.939,17.144,28.859Z" transform="translate(-21.944 13.339)"/><path class="m" d="M16.79,40.67c.385.261.466.522,0,.783Z" transform="translate(-21.944 89.154)"/><path class="m" d="M16.79,25.509c.373.143.354.448.323.765-.087.28-.2.286-.323.019Z" transform="translate(-21.944 10.069)"/><path class="n" d="M16.79,25.653a1.433,1.433,0,0,1,.323-.019.715.715,0,0,1-.323.8Z" transform="translate(-21.944 10.708)"/><path class="d" d="M141.7,26.666c-3.556,2.872-6.826,5.514-10.1,8.15Q107.124,54.528,82.654,74.253c-.833.671-1.355,1.019-2.418.162q-29.046-23.5-58.179-46.9c-.249-.2-.479-.423-.951-.845Z" transform="translate(0.565 16.104)"/><path class="d" d="M141.12,71.55H21.2c.093-.789.727-.976,1.144-1.312q22.043-17.782,44.08-35.57c1.256-1.019,1.989-1.057,3.22,0,3.1,2.661,6.366,5.129,9.511,7.739a2.333,2.333,0,0,0,3.438,0c3.351-2.766,6.776-5.446,10.133-8.206.814-.671,1.368-.877,2.312-.112q22.929,18.547,45.908,37.025C140.989,71.153,141,71.233,141.12,71.55Z" transform="translate(1.055 52.281)"/><path class="d" d="M20.5,104.261V26.948c1.554,1.25,2.9,2.325,4.233,3.4q21.3,17.157,42.613,34.3c.914.74,1.529,1.107.193,2.182q-23.032,18.425-45.97,36.963C21.293,104.013,21.07,104.4,20.5,104.261Z" transform="translate(-2.571 17.575)"/><path class="d" d="M81.013,26.984v76.654c-.628.292-.9-.317-1.25-.6Q57,84.75,34.247,66.433c-.864-.7-1.237-1.044-.112-1.946q23.246-18.621,46.43-37.323A3.407,3.407,0,0,1,81.013,26.984Z" transform="translate(64.879 17.763)"/><path class="e" d="M45.092,27.227c.019,3.239.062,6.471.062,9.71q.009,32.244,0,64.489c0,.709-.044,1.417-.062,2.132l-.149.255-.143-.255V27.227l.143-.255Z" transform="translate(124.167 17.7)"/><path class="e" d="M25.031,19.186c2.909-.025,5.825-.062,8.734-.062q31.461-.009,62.929,0c.771,0,1.548.037,2.325.062l-.006.261c-8.5.025-17,.062-25.5.056q-24.244-.009-48.482-.05c-.168-.056-.224-.118-.168-.18A.225.225,0,0,1,25.031,19.186Z" transform="translate(20.061 -23.263)"/><path class="o" d="M32.683,19.18v.286c-2.8.025-5.582.044-8.361.068a3.784,3.784,0,0,1-.485.174.5.5,0,0,1-.311-.087,1.066,1.066,0,0,1-.149-.131,16.283,16.283,0,0,1,3.083-.354c.771-.019,1.548-.019,2.319-.019h.174C30.19,19.137,31.446,19.18,32.683,19.18Z" transform="translate(12.416 -23.269)"/><path class="p" d="M44.238,19.466a.665.665,0,0,1-.242.155,1.5,1.5,0,0,1-1.187-.044c-1.747-.019-3.487-.068-5.228-.087-.155-.068-.242-.112-.2-.174,0-.05.062-.093.174-.137l2.381-.062c.485,0,.97,0,1.461.019A14.277,14.277,0,0,1,44.238,19.466Z" transform="translate(85.41 -23.269)"/><path class="k" d="M45.3,39.9a27.4,27.4,0,0,1-.28,6.689,1.381,1.381,0,0,1-.106-1.461L45,39.9C45.091,39.63,45.2,39.63,45.3,39.9Z" transform="translate(123.957 84.083)"/><path class="q" d="M21.523,20.257a18.353,18.353,0,0,1,5.1-1c.168.062.224.131.168.2a.2.2,0,0,1-.162.1l-5.079,1.057C21.262,20.518,21.25,20.4,21.523,20.257Z" transform="translate(1.719 -22.549)"/><path class="r" d="M44.747,24.878c.734,1.082.3,2.313.441,3.463a2.194,2.194,0,0,1-.131,2.02C44.5,28.558,44.834,26.706,44.747,24.878Z" transform="translate(123.791 6.777)"/><path class="s" d="M26.521,19.178l.945.05c-1.467.622-3,.267-4.507.342-.255-.124-.249-.23.025-.311Z" transform="translate(9.266 -22.956)"/><path class="j" d="M45.08,40.571l.106,1.461-.137,3.083c-.131.193-.236.18-.317-.044C44.85,43.574,44.489,42.032,45.08,40.571Z" transform="translate(123.794 88.638)"/><path class="t" d="M17.177,25.912l1.15-3.1A2.9,2.9,0,0,1,17.177,25.912Z" transform="translate(-19.926 -4.01)"/><path class="u" d="M44.781,27.455l.131-2.02a10.289,10.289,0,0,1,.274,3.966c-.143.261-.255.249-.329-.037Z" transform="translate(124.068 9.683)"/><path class="v" d="M40.672,19.129l.006.292-3.9-.019.006-.267Z" transform="translate(82.3 -23.212)"/><path class="w" d="M38.246,19.287l1.43-.112,2.269.1c.267.087.28.187.019.311C40.72,19.523,39.452,19.84,38.246,19.287Z" transform="translate(89.979 -22.972)"/><path class="x" d="M17.666,45.536a7.406,7.406,0,0,1-.678-3.27q.214-.392.336.037l.423,2.7C17.927,45.212,17.9,45.386,17.666,45.536Z" transform="translate(-20.943 96.504)"/><path class="y" d="M45.368,43.052a5.7,5.7,0,0,1-.8,2.686c-.131-.081-.186-.174-.162-.274s.062-.168.106-.168a7.273,7.273,0,0,1,.752-2.741A.306.306,0,0,1,45.368,43.052Z" transform="translate(122.076 98.987)"/><path class="z" d="M45.106,43l.056.441a4.318,4.318,0,0,1-.821,2.263A3.625,3.625,0,0,1,45.106,43Z" transform="translate(121.481 101.288)"/><path class="y" d="M40.7,19.482a5.546,5.546,0,0,1,2.673.8c-.112.186-.249.2-.4.056a6.8,6.8,0,0,1-2.735-.765A.3.3,0,0,1,40.7,19.482Z" transform="translate(100.328 -21.744)"/><path class="aa" d="M16.959,27.314a10.965,10.965,0,0,1,.41-3.114c.106-.205.205-.205.311,0A5.159,5.159,0,0,1,16.959,27.314Z" transform="translate(-21.267 2.433)"/><path class="ab" d="M40.67,19.607l.4-.056c.876.162,1.852.118,2.288,1.15A10.044,10.044,0,0,1,40.67,19.607Z" transform="translate(102.623 -21.011)"/><path class="ac" d="M43.091,19.978l-.466.093L39.771,19.6C40.977,18.884,42,19.717,43.091,19.978Z" transform="translate(97.934 -22.239)"/><path class="ad" d="M39.858,19.338a4.321,4.321,0,0,1,2.4.385c-1.063.012-2.138.274-3.146-.28C39.317,19.126,39.584,19.195,39.858,19.338Z" transform="translate(94.496 -22.749)"/><path class="ae" d="M44.792,23.693a4.567,4.567,0,0,1,.4,2.735,6.6,6.6,0,0,1-.709-2.748C44.6,23.494,44.7,23.5,44.792,23.693Z" transform="translate(122.534 -0.181)"/><path class="l" d="M44.793,26.067a1.909,1.909,0,0,0,.329.037l.006,3.121c-.106.267-.205.267-.3,0Z" transform="translate(124.131 12.979)"/><path class="af" d="M23.69,19.417a3.407,3.407,0,0,0,.031.354c-.8.18-1.6.354-2.393.535-.162.143-.3.131-.417-.062A6.252,6.252,0,0,1,23.69,19.417Z" transform="translate(-0.447 -21.71)"/><path class="ag" d="M17.178,26.617a.245.245,0,0,1-.131-.025.487.487,0,0,1-.087-.019l-.068-.242a1.878,1.878,0,0,1,.087-.995v-.025a5.7,5.7,0,0,1,.267-.684A1.513,1.513,0,0,1,17.178,26.617Z" transform="translate(-21.58 5.473)"/><path class="ah" d="M22.758,19.55l.417.062a4.343,4.343,0,0,1-2.617.8C21.11,19.668,21.968,19.693,22.758,19.55Z" transform="translate(-2.294 -21.016)"/><path class="ai" d="M17.3,26.172h-.311a7.227,7.227,0,0,1,.609-2.505.338.338,0,0,1,.093.566A3.874,3.874,0,0,1,17.3,26.172Z" transform="translate(-20.891 0.46)"/><path class="aj" d="M44.644,44.732l-.106-.5c.044-.746,0-1.517.74-2A6.742,6.742,0,0,1,44.644,44.732Z" transform="translate(122.8 97.308)"/><path class="ak" d="M41.984,20.188c.92-.075,1.448.547,2.008,1.119A3.166,3.166,0,0,1,41.984,20.188Z" transform="translate(109.478 -17.719)"/><path class="al" d="M19.559,46.508a5,5,0,0,1-1.511-1.84A1.936,1.936,0,0,1,19.559,46.508Z" transform="translate(-15.382 110.01)"/><path class="am" d="M44.174,45.685a5.011,5.011,0,0,1-1.834,1.5A1.9,1.9,0,0,1,44.174,45.685Z" transform="translate(111.335 115.315)"/><path class="an" d="M45.011,41.295a2.606,2.606,0,0,1,.317.037,2.073,2.073,0,0,1-.23,1.548c-.143.28-.286.28-.423,0Z" transform="translate(123.515 92.415)"/><path class="ao" d="M17.533,42.881c-.044.112-.112.18-.155.18-.087.044-.155-.025-.242-.18A.6.6,0,0,1,17,42.6V42.57a1.7,1.7,0,0,1-.137-.926,1.474,1.474,0,0,0,.05-.3c.044,0,.087-.025.131-.025a.5.5,0,0,1,.174-.019A2.824,2.824,0,0,1,17.533,42.881Z" transform="translate(-21.581 92.42)"/><path class="ap" d="M44.949,24.439a7.6,7.6,0,0,1,.137,2.779,4.563,4.563,0,0,1-.4-2.735Z" transform="translate(123.477 4.487)"/><path class="i" d="M45.1,42.015l-.3.006c0-.914.006-1.821.012-2.729H45.1Z" transform="translate(124.157 81.966)"/><path class="i" d="M44.8,26.575h.3V29.3H44.81C44.8,28.39,44.8,27.483,44.8,26.575Z" transform="translate(124.157 15.629)"/><path class="aq" d="M44.235,22.732A3.221,3.221,0,0,1,45,24.877,3.022,3.022,0,0,1,44.235,22.732Z" transform="translate(121.213 -4.417)"/><path class="ar" d="M19.089,21.452a2.747,2.747,0,0,1,1.318-1.069C20.171,20.992,20.046,21.732,19.089,21.452Z" transform="translate(-9.952 -16.671)"/><path class="as" d="M45.155,25.4l-.3-.012a3.469,3.469,0,0,1-.4-2.17A4.155,4.155,0,0,1,45.155,25.4Z" transform="translate(122.171 -1.887)"/><path class="at" d="M17.574,43.461l-.336-.037-.3-1.511.255-.056A2,2,0,0,1,17.574,43.461Z" transform="translate(-21.193 95.346)"/><path class="at" d="M45.236,25.733a1.272,1.272,0,0,1-.261.044,1.1,1.1,0,0,1-.05-1.585Z" transform="translate(123.19 3.193)"/><path class="au" d="M24.841,19.223l-.025.311-1.722.075c-.255.149-.491.187-.678-.106A4.486,4.486,0,0,1,24.841,19.223Z" transform="translate(7.408 -22.921)"/><path class="av" d="M41.272,19.51l-.752.106-1.66-.081-.019-.311A4.459,4.459,0,0,1,41.272,19.51Z" transform="translate(93.083 -22.922)"/><path class="aw" d="M23.658,19.236l.678.106c-.659.5-1.424.292-2.151.317l-.006-.3Z" transform="translate(6.167 -22.654)"/><path class="ax" d="M17.183,25.453l-.093-.566c.062-.51-.012-1.057.429-1.455A2.65,2.65,0,0,1,17.183,25.453Z" transform="translate(-20.379 -0.761)"/><path class="ay" d="M17.092,43.078l.081-.528a2.554,2.554,0,0,1,.329,2.014C17.055,44.154,17.148,43.594,17.092,43.078Z" transform="translate(-20.369 98.961)"/><path class="az" d="M45.186,41.889a1.6,1.6,0,0,1-.274,1.206.794.794,0,0,1,.012-1.237Z" transform="translate(123.24 95.352)"/><path class="r" d="M44.932,43.5c-.087-.012-.174-.025-.261-.031L44.7,41.55h.423Z" transform="translate(123.494 93.745)"/><path class="ba" d="M17.34,43.453a1.872,1.872,0,0,0-.255.056l-.18-1.958.392.012Z" transform="translate(-21.344 93.75)"/></g></g></svg>