<svg xmlns="http://www.w3.org/2000/svg" xmlns:xlink="http://www.w3.org/1999/xlink" width="71.688" height="71.688" viewBox="0 0 71.688 71.688"><defs><style>.a{fill:none;}.b{fill:url(#a);}.c{fill:#fff;}</style><linearGradient id="a" x1="0.5" x2="0.5" y2="1" gradientUnits="objectBoundingBox"><stop offset="0" stop-color="#2ea6ae"/><stop offset="0.178" stop-color="#2ea5ad" stop-opacity="0.973"/><stop offset="0.377" stop-color="#2fa4ac" stop-opacity="0.898"/><stop offset="0.588" stop-color="#30a3ab" stop-opacity="0.773"/><stop offset="0.805" stop-color="#32a1a9" stop-opacity="0.596"/><stop offset="1" stop-color="#35a0a8" stop-opacity="0.4"/></linearGradient></defs><path class="a" d="M0,71.689V0H71.689V71.689Z"/><g transform="translate(8.961 8.961)"><path class="b" d="M75.266,67.8A7.467,7.467,0,0,1,67.8,75.266H28.968A7.467,7.467,0,0,1,21.5,67.8V28.968A7.467,7.467,0,0,1,28.968,21.5H67.8a7.467,7.467,0,0,1,7.468,7.468Z" transform="translate(-21.5 -21.5)"/><path class="c" d="M99.394,64.505H94.365V83.921H86.9V64.505H82.417V58.531H86.9v-3.6c.006-5.239,2.182-8.348,8.354-8.348h5.087v5.974H96.926c-2.4,0-2.561.9-2.561,2.573v3.4h5.974Z" transform="translate(-57.027 -36.129)"/></g></svg>