<svg xmlns="http://www.w3.org/2000/svg" width="71.674" height="71.688" viewBox="0 0 71.674 71.688"><defs><style>.a{fill:#61b5bb;}.b{fill:#fff;}</style></defs><g transform="translate(-979.326 -889.626)"><path class="a" d="M55.3,89.105H20.642a.957.957,0,0,0-.122-.093c-1.8-.915-3.425-2.121-3.425-4.144V21.851a4.421,4.421,0,0,1,4.42-4.42H84.306c.139,0,.278,0,.417,0a3.984,3.984,0,0,1,3.9,3.168,2.778,2.778,0,0,0,.148.378V85.52a1.079,1.079,0,0,0-.133.259,3.828,3.828,0,0,1-3.195,3.195,1.08,1.08,0,0,0-.259.133H66.658q-1.7.007-3.41.011Q59.258,89.123,55.3,89.105Z" transform="translate(962.23 872.196)"/><path class="b" d="M74.924,74.311a17.47,17.47,0,0,1-9.968,4.807,18.359,18.359,0,0,1-3.82.283c-2.056-.1-4.072.528-6.133.35-6.289-.548-12.6.033-18.9-.472a16.526,16.526,0,0,1-10.24-4.3c-3.234-3.008-4.642-7-4.994-11.381-.324-4.025-.2-8.056-.313-12.083.135-4.835-.033-9.675.259-14.512a17.682,17.682,0,0,1,4.359-11.292,15.082,15.082,0,0,1,9.047-4.6,38.443,38.443,0,0,1,5.063-.472c8.106-.126,16.218-.343,24.32.167a16.591,16.591,0,0,1,10.527,4.185,15.675,15.675,0,0,1,5.09,10.914,229.192,229.192,0,0,1,0,28.207A16.478,16.478,0,0,1,74.924,74.311Zm-2.71-5.224A11.107,11.107,0,0,0,73.9,63.9c.585-6.891.274-13.8.3-20.7a59.473,59.473,0,0,0-.309-7.252c-.585-4.9-3.436-8.38-7.936-9.384a33.718,33.718,0,0,0-6.858-.637c-4.616-.074-9.234-.07-13.852-.054a72.087,72.087,0,0,0-9.266.337c-6.215.819-9.023,4.492-9.668,9.381-.669,5.07-.406,10.2-.346,15.312a111.155,111.155,0,0,0,.254,12.763c.617,6.087,4.107,9.668,10.181,10.155,8.006.639,16.038.337,24.059.261a32.252,32.252,0,0,0,3.886-.28A10.3,10.3,0,0,0,72.214,69.087Z" transform="translate(966.288 875.779)"/><path class="b" d="M55.031,50.586a15.184,15.184,0,0,1-27.719-6.669c-.07-.53-.111-1.067-.165-1.6A15.173,15.173,0,0,1,30,33.368a14.548,14.548,0,0,1,13.045-6.23c6.38.356,10.929,3.66,13.365,9.564C58.39,41.5,57.68,46.175,55.031,50.586Zm-4.674-2.727c3.51-5.268,1.873-10.977-3.047-14.036a9.809,9.809,0,1,0,3.047,14.036Z" transform="translate(974.023 883.554)"/><path class="b" d="M43.247,25.207a3.525,3.525,0,1,1-3.486,3.5A3.5,3.5,0,0,1,43.247,25.207Z" transform="translate(988.821 881.32)"/></g></svg>