<svg xmlns="http://www.w3.org/2000/svg" width="119.84" height="88.373" viewBox="0 0 119.84 88.373">
  <g id="Group_49" data-name="Group 49" transform="translate(0 0.5)">
    <path id="Fill_1" data-name="Fill 1" d="M64.938,54.114,0,54.312,28.331,2.247c1.63-3,6.75-3,8.382,0Z" transform="translate(54.902 33.059)" fill="#4d6666"/>
    <path id="Fill_3" data-name="Fill 3" d="M54.972,20.828Q69.4,53.649,83.829,86.465,41.917,86.621,0,86.78L36.573,3.59a5.872,5.872,0,0,1,10.821,0q3.788,8.619,7.579,17.238" transform="translate(17.12 0.59)" fill="#bbdfdc"/>
    <path id="Stroke_5" data-name="Stroke 5" d="M83.829,86.465Q41.917,86.621,0,86.78L36.573,3.59a5.872,5.872,0,0,1,10.821,0q3.787,8.62,7.579,17.239Q69.4,53.648,83.829,86.465Z" transform="translate(17.12 0.59)" fill="none" stroke="#6d6d6d" stroke-miterlimit="10" stroke-width="1"/>
    <path id="Fill_7" data-name="Fill 7" d="M64.938,70Q32.47,70.122,0,70.251L28.331,2.906a4.475,4.475,0,0,1,8.382,0Z" transform="translate(0 17.12)" fill="#619294"/>
    <path id="Fill_9" data-name="Fill 9" d="M26.395,19.87c1.173,4.066.734,4.857.366,5.146-.948.744-3.22,0-4.388-1.47-1.722-2.163-.334-5.057-1.828-5.881a1.946,1.946,0,0,0-2.194.367c-.568.62-.328,1.588.366,4.411.767,3.122,1.149,4.7,1.1,5.513-.024.363-.282,3.774-2.194,4.411-1.5.5-3.177-1-3.291-1.1C11.255,28.443,11.8,21.63,11.849,21.15c.078-.863.265-2.184-.362-2.574-.5-.311-1.376.064-1.912.559-1.112,1.029-.741,2.56-.987,4.222-.526,3.551-3.768,7-5.8,6.62C1.17,29.671.429,26.943.254,26.3A9.085,9.085,0,0,1,.8,20.6c.315-.79.388-.711,1.086-2.207a35.492,35.492,0,0,0,1.449-3.678c.312-.886.353-.9,2.536-5.884,2.436-5.557,2.765-6.4,3.986-7.355A6.26,6.26,0,0,1,13.479,0a6.21,6.21,0,0,1,3.623,1.1c2.485,1.585,2.8,3.73,5.435,9.562,1.784,3.945,2.789,5.5,3.857,9.2" transform="translate(45.456 0)" fill="#f9f9f9"/>
    <path id="Stroke_11" data-name="Stroke 11" d="M26.395,19.87c1.173,4.066.734,4.857.366,5.146-.948.744-3.22,0-4.388-1.47-1.722-2.163-.334-5.057-1.828-5.881a1.946,1.946,0,0,0-2.194.367c-.568.62-.328,1.588.366,4.411.767,3.122,1.149,4.7,1.1,5.513-.024.363-.282,3.774-2.194,4.411-1.5.5-3.177-1-3.291-1.1C11.255,28.443,11.8,21.63,11.849,21.15c.078-.863.265-2.184-.362-2.574-.5-.311-1.376.064-1.912.559-1.112,1.029-.741,2.56-.987,4.222-.526,3.551-3.768,7-5.8,6.62C1.17,29.671.429,26.943.254,26.3A9.085,9.085,0,0,1,.8,20.6c.315-.79.388-.711,1.086-2.207a35.492,35.492,0,0,0,1.449-3.678c.312-.886.353-.9,2.536-5.884,2.436-5.557,2.765-6.4,3.986-7.355A6.26,6.26,0,0,1,13.479,0a6.21,6.21,0,0,1,3.623,1.1c2.485,1.585,2.8,3.73,5.435,9.562C24.322,14.614,25.326,16.168,26.395,19.87Z" transform="translate(45.456 0)" fill="none" stroke="#6d6d6d" stroke-miterlimit="10" stroke-width="1"/>
    <g id="Group_737" data-name="Group 737">
      <g id="Group_736" data-name="Group 736">
        <path id="Fill_43" data-name="Fill 43" d="M31,22.687h0C35.163,11.8,27.4,0,16.069,0S-3.026,11.8,1.14,22.687a15.869,15.869,0,0,0,29.857,0" transform="translate(82.979 13.059)" fill="#ff6961"/>
        <path id="Fill_45" data-name="Fill 45" d="M24.42,0h8.151L11.885,39.426l-4.9-1.535" transform="translate(65.631 40.818)" fill="#ff6961" stroke="rgba(0,0,0,0)" stroke-width="1"/>
      </g>
      <path id="Fill_47" data-name="Fill 47" d="M16.009,13.274h0a8.665,8.665,0,1,0-14.675,0,8.672,8.672,0,0,0,14.675,0" transform="translate(90.236 21.353)" fill="#fff"/>
    </g>
  </g>
</svg>
