<svg xmlns="http://www.w3.org/2000/svg" width="165.033" height="165.125" viewBox="0 0 165.033 165.125"><defs><style>.a{fill:#61b5bb;}.b{fill:#fefefe;}</style></defs><g transform="translate(-21.551 -20.429)"><path class="a" d="M185.753,107.887c-3.854,28.563-21.007,47.757-46.7,59.469-17.153,7.783-35.138,9.143-53.424,5.29a13.593,13.593,0,0,0-10.579,1.662c-5.894,3.476-12.015,6.725-17.984,10.05-2.8,1.587-5.592,2.267-4.836-2.343,2.72-16.4-3.627-28.412-15.189-40.049S21.475,114.31,21.551,90.885c.378-20.025,12.317-40.8,34.231-55.842,28.715-19.647,68.764-19.5,97.176.529C177.894,53.1,189.985,77.283,185.753,107.887Z" transform="translate(0 0)"/><path class="b" d="M122.572,33.858C110.98,46.379,99.3,58.825,87.858,71.482c-2.751,3.045-4.345,2.448-6.7-.28-4.05-4.7-8.713-8.894-12.529-13.768-3.476-4.436-6.491-4.919-11.388-1.95a237.168,237.168,0,0,1-31.48,16.027Q34.3,62.331,42.821,53.165c7.126-7.617,14.433-15.06,21.317-22.873,2.9-3.295,4.587-2.917,7.247.106,4.677,5.327,9.846,10.224,14.592,15.5,2.335,2.6,4.277,2.917,7.383,1.118C102.366,41.823,111.585,37,120.721,32.03,122.421,31.553,122.814,32.385,122.572,33.858Z" transform="translate(27.643 49.455)"/></g></svg>