<svg xmlns="http://www.w3.org/2000/svg" width="115.796" height="88.373" viewBox="0 0 115.796 88.373">
  <g id="Group_695" data-name="Group 695" transform="translate(-433.547 -360.262)">
    <g id="Group_49" data-name="Group 49" transform="translate(433.547 360.762)">
      <path id="Fill_3" data-name="Fill 3" d="M54.972,20.828Q69.4,53.649,83.829,86.465,41.917,86.621,0,86.78L36.573,3.59a5.872,5.872,0,0,1,10.821,0q3.788,8.619,7.579,17.238" transform="translate(17.12 0.59)" fill="#bbdfdc"/>
      <path id="Stroke_5" data-name="Stroke 5" d="M83.829,86.465Q41.917,86.621,0,86.78L36.573,3.59a5.872,5.872,0,0,1,10.821,0q3.787,8.62,7.579,17.239Q69.4,53.648,83.829,86.465Z" transform="translate(17.12 0.59)" fill="none" stroke="#6d6d6d" stroke-miterlimit="10" stroke-width="1"/>
      <path id="Fill_7" data-name="Fill 7" d="M64.938,70Q32.47,70.122,0,70.251L28.331,2.906a4.475,4.475,0,0,1,8.382,0Z" transform="translate(0 17.12)" fill="#619294"/>
      <path id="Fill_9" data-name="Fill 9" d="M26.395,19.87c1.173,4.066.734,4.857.366,5.146-.948.744-3.22,0-4.388-1.47-1.722-2.163-.334-5.057-1.828-5.881a1.946,1.946,0,0,0-2.194.367c-.568.62-.328,1.588.366,4.411.767,3.122,1.149,4.7,1.1,5.513-.024.363-.282,3.774-2.194,4.411-1.5.5-3.177-1-3.291-1.1C11.255,28.443,11.8,21.63,11.849,21.15c.078-.863.265-2.184-.362-2.574-.5-.311-1.376.064-1.912.559-1.112,1.029-.741,2.56-.987,4.222-.526,3.551-3.768,7-5.8,6.62C1.17,29.671.429,26.943.254,26.3A9.085,9.085,0,0,1,.8,20.6c.315-.79.388-.711,1.086-2.207a35.492,35.492,0,0,0,1.449-3.678c.312-.886.353-.9,2.536-5.884,2.436-5.557,2.765-6.4,3.986-7.355A6.26,6.26,0,0,1,13.479,0a6.21,6.21,0,0,1,3.623,1.1c2.485,1.585,2.8,3.73,5.435,9.562,1.784,3.945,2.789,5.5,3.857,9.2" transform="translate(45.456 0)" fill="#f9f9f9"/>
      <path id="Stroke_11" data-name="Stroke 11" d="M26.395,19.87c1.173,4.066.734,4.857.366,5.146-.948.744-3.22,0-4.388-1.47-1.722-2.163-.334-5.057-1.828-5.881a1.946,1.946,0,0,0-2.194.367c-.568.62-.328,1.588.366,4.411.767,3.122,1.149,4.7,1.1,5.513-.024.363-.282,3.774-2.194,4.411-1.5.5-3.177-1-3.291-1.1C11.255,28.443,11.8,21.63,11.849,21.15c.078-.863.265-2.184-.362-2.574-.5-.311-1.376.064-1.912.559-1.112,1.029-.741,2.56-.987,4.222-.526,3.551-3.768,7-5.8,6.62C1.17,29.671.429,26.943.254,26.3A9.085,9.085,0,0,1,.8,20.6c.315-.79.388-.711,1.086-2.207a35.492,35.492,0,0,0,1.449-3.678c.312-.886.353-.9,2.536-5.884,2.436-5.557,2.765-6.4,3.986-7.355A6.26,6.26,0,0,1,13.479,0a6.21,6.21,0,0,1,3.623,1.1c2.485,1.585,2.8,3.73,5.435,9.562C24.322,14.614,25.326,16.168,26.395,19.87Z" transform="translate(45.456 0)" fill="none" stroke="#6d6d6d" stroke-miterlimit="10" stroke-width="1"/>
      <path id="Stroke_11-2" data-name="Stroke 11" d="M26.395,19.87c1.173,4.066.734,4.857.366,5.146-.948.744-3.22,0-4.388-1.47-1.722-2.163-.334-5.057-1.828-5.881a1.946,1.946,0,0,0-2.194.367c-.568.62-.328,1.588.366,4.411.767,3.122,1.149,4.7,1.1,5.513-.024.363-.282,3.774-2.194,4.411-1.5.5-3.177-1-3.291-1.1C11.255,28.443,11.8,21.63,11.849,21.15c.078-.863.265-2.184-.362-2.574-.5-.311-1.376.064-1.912.559-1.112,1.029-.741,2.56-.987,4.222-.526,3.551-3.768,7-5.8,6.62C1.17,29.671.429,26.943.254,26.3A9.085,9.085,0,0,1,.8,20.6c.315-.79.388-.711,1.086-2.207a35.492,35.492,0,0,0,1.449-3.678c.312-.886.353-.9,2.536-5.884,2.436-5.557,2.765-6.4,3.986-7.355A6.26,6.26,0,0,1,13.479,0a6.21,6.21,0,0,1,3.623,1.1c2.485,1.585,2.8,3.73,5.435,9.562C24.322,14.614,25.326,16.168,26.395,19.87Z" transform="translate(18.456 17)" fill="none" stroke="#6d6d6d" stroke-miterlimit="10" stroke-width="1"/>
      <path id="Fill_9-2" data-name="Fill 9" d="M26.395,19.87c1.173,4.066.734,4.857.366,5.146-.948.744-3.22,0-4.388-1.47-1.722-2.163-.334-5.057-1.828-5.881a1.946,1.946,0,0,0-2.194.367c-.568.62-.328,1.588.366,4.411.767,3.122,1.149,4.7,1.1,5.513-.024.363-.282,3.774-2.194,4.411-1.5.5-3.177-1-3.291-1.1C11.255,28.443,11.8,21.63,11.849,21.15c.078-.863.265-2.184-.362-2.574-.5-.311-1.376.064-1.912.559-1.112,1.029-.741,2.56-.987,4.222-.526,3.551-3.768,7-5.8,6.62C1.17,29.671.429,26.943.254,26.3A9.085,9.085,0,0,1,.8,20.6c.315-.79.388-.711,1.086-2.207a35.492,35.492,0,0,0,1.449-3.678c.312-.886.353-.9,2.536-5.884,2.436-5.557,2.765-6.4,3.986-7.355A6.26,6.26,0,0,1,13.479,0a6.21,6.21,0,0,1,3.623,1.1c2.485,1.585,2.8,3.73,5.435,9.562,1.784,3.945,2.789,5.5,3.857,9.2" transform="translate(45.456)" fill="#f9f9f9"/>
      <path id="Fill_9-3" data-name="Fill 9" d="M26.395,19.87c1.173,4.066.734,4.857.366,5.146-.948.744-3.22,0-4.388-1.47-1.722-2.163-.334-5.057-1.828-5.881a1.946,1.946,0,0,0-2.194.367c-.568.62-.328,1.588.366,4.411.767,3.122,1.149,4.7,1.1,5.513-.024.363-.282,3.774-2.194,4.411-1.5.5-3.177-1-3.291-1.1C11.255,28.443,11.8,21.63,11.849,21.15c.078-.863.265-2.184-.362-2.574-.5-.311-1.376.064-1.912.559-1.112,1.029-.741,2.56-.987,4.222-.526,3.551-3.768,7-5.8,6.62C1.17,29.671.429,26.943.254,26.3A9.085,9.085,0,0,1,.8,20.6c.315-.79.388-.711,1.086-2.207a35.492,35.492,0,0,0,1.449-3.678c.312-.886.353-.9,2.536-5.884,2.436-5.557,2.765-6.4,3.986-7.355A6.26,6.26,0,0,1,13.479,0a6.21,6.21,0,0,1,3.623,1.1c2.485,1.585,2.8,3.73,5.435,9.562,1.784,3.945,2.789,5.5,3.857,9.2" transform="translate(18.456 17)" fill="#f9f9f9"/>
    </g>
    <path id="Path_212" data-name="Path 212" d="M61.79,93.173a3.632,3.632,0,0,0-.876,2.745c.409,3.445,1.168,6.891,1.635,10.277.35,2.336-.934,3.8-3.328,3.737-.876-.467-2.1-1.051-3.387-1.693-2.8-1.4-5.606-3.971-8.409-3.971-2.745.058-5.547,2.628-8.35,3.971-1.81.818-3.445,2.745-5.664,1.051-2.1-1.518-.818-3.62-.7-5.547a14.312,14.312,0,0,1,.584-3.153c1.927-4.73.234-8.117-3.679-10.978a16.6,16.6,0,0,1-3.5-3.5c-.7-.934-1.46-2.453-1.168-3.387s1.81-1.81,2.92-2.044c3.153-.642,6.423-.876,9.577-1.577a4.12,4.12,0,0,0,2.686-1.927c1.693-2.8,2.92-5.9,4.555-8.818a4.235,4.235,0,0,1,2.686-1.985,4.247,4.247,0,0,1,2.92,2.1c1.635,2.861,2.92,5.956,4.5,8.818a4.3,4.3,0,0,0,2.569,1.81c3.212.7,6.54.934,9.752,1.577a5.2,5.2,0,0,1,2.453,1.4,1.638,1.638,0,0,1,.467.7c.35.876-.292,2.453-1.051,3.212C66.7,88.5,64.126,90.72,61.79,93.173Z" transform="translate(479.221 317.482)" fill="#ff6961"/>
  </g>
</svg>
