<svg xmlns="http://www.w3.org/2000/svg" width="47.939" height="45.847" viewBox="0 0 47.939 45.847"><path d="M26.285,2.486l5.407,10.956a2.581,2.581,0,0,0,1.944,1.412l12.091,1.757a2.581,2.581,0,0,1,1.431,4.4l-8.749,8.528a2.582,2.582,0,0,0-.742,2.285l2.065,12.042a2.582,2.582,0,0,1-3.746,2.722L25.172,40.906a2.585,2.585,0,0,0-2.4,0L11.955,46.591a2.582,2.582,0,0,1-3.746-2.722l2.065-12.042a2.582,2.582,0,0,0-.742-2.285L.783,21.014a2.581,2.581,0,0,1,1.431-4.4L14.3,14.854a2.581,2.581,0,0,0,1.944-1.412L21.656,2.486A2.581,2.581,0,0,1,26.285,2.486Z" transform="translate(-0.001 -1.047)" fill="#35a0a7"/></svg>