<?xml version="1.0" encoding="utf-8"?>
<!-- Generator: Adobe Illustrator 22.0.1, SVG Export Plug-In . SVG Version: 6.00 Build 0)  -->
<svg version="1.1" id="Layer_1" xmlns="http://www.w3.org/2000/svg" xmlns:xlink="http://www.w3.org/1999/xlink" x="0px" y="0px"
	 viewBox="0 0 141 135" style="enable-background:new 0 0 141 135;" xml:space="preserve">
<style type="text/css">
	.st0{fill:#61B5BB;}
	.st1{fill:#0C0B0B;}
	.st2{fill:none;}
	.st3{fill:none;stroke:#61B5BB;}
	.st4{enable-background:new    ;}
	.st5{fill:#0D0E0E;}
</style>
<g id="Group_132" transform="translate(-778 -1102)">
	<g id="Group_130" transform="translate(-12 -52)">
		<g id="bord" transform="translate(887.379 1175.958) rotate(43)">
			<path id="Path_10" class="st0" d="M12.9-0.6c7.1-0.3,12.7,4.5,12.4,10.7c-0.3,6.2-6.3,11.5-13.4,11.9C4.8,22.3-0.8,17.5-0.5,11.3
				S5.8-0.3,12.9-0.6z"/>
			<path id="Path_11" class="st0" d="M-0.5,11.7l25.9-1.2l-2.8,62l-25.9,1.2L-0.5,11.7z"/>
			<path id="Path_12" class="st1" d="M9.8,13.4c0.2,0,0.4,0.2,0.4,0.4c0,0,0,0,0,0.1c0,0.3-0.2,0.5-0.5,0.5c-0.2,0-0.4-0.2-0.4-0.4
				c0,0,0,0,0-0.1C9.4,13.6,9.6,13.4,9.8,13.4z"/>
			<path id="Path_13" class="st1" d="M15,13.1c0.2,0,0.4,0.2,0.4,0.4c0,0,0,0,0,0.1c0,0.3-0.2,0.5-0.5,0.5c-0.2,0-0.4-0.2-0.4-0.4
				c0,0,0,0,0-0.1C14.5,13.4,14.7,13.2,15,13.1z"/>
			<path id="Path_14" class="st1" d="M9.6,18.8c0.2,0,0.4,0.2,0.4,0.4c0,0,0,0,0,0.1c0,0.3-0.2,0.5-0.5,0.5c-0.2,0-0.4-0.2-0.4-0.4
				c0,0,0,0,0-0.1C9.1,19.1,9.3,18.8,9.6,18.8z"/>
			<path id="Path_15" class="st0" d="M10.1,62.3C17.2,62,22.8,66.8,22.5,73S16.2,84.5,9,84.8S-3.7,80.4-3.4,74.2
				C-3.1,67.9,2.9,62.6,10.1,62.3z"/>
			<path id="Path_16" class="st1" d="M14.7,18.6c0.2,0,0.4,0.2,0.4,0.4c0,0,0,0,0,0.1c0,0.3-0.2,0.5-0.5,0.5c-0.2,0-0.4-0.2-0.4-0.4
				c0,0,0,0,0-0.1C14.3,18.8,14.5,18.6,14.7,18.6z"/>
			<path id="Path_17" class="st1" d="M12.6,64.8c0.2,0,0.4,0.2,0.4,0.4c0,0,0,0,0,0.1c0,0.3-0.2,0.5-0.5,0.5c-0.2,0-0.4-0.2-0.4-0.4
				c0,0,0,0,0-0.1C12.2,65,12.4,64.8,12.6,64.8z"/>
			<path id="Path_18" class="st1" d="M7.2,70.4c0.2,0,0.4,0.2,0.4,0.4c0,0,0,0,0,0.1c0,0.3-0.2,0.5-0.5,0.5c-0.2,0-0.4-0.2-0.4-0.4
				c0,0,0,0,0-0.1C6.8,70.7,7,70.4,7.2,70.4z"/>
			<path id="Path_19" class="st1" d="M12.4,70.2c0.2,0,0.4,0.2,0.4,0.4c0,0,0,0,0,0.1c0,0.3-0.2,0.5-0.5,0.5c-0.2,0-0.4-0.2-0.4-0.4
				c0,0,0,0,0-0.1C11.9,70.4,12.1,70.2,12.4,70.2z"/>
			<path id="Path_20" class="st1" d="M7.5,65c0.2,0,0.4,0.2,0.4,0.4c0,0,0,0,0,0.1c0,0.3-0.2,0.5-0.5,0.5C7.2,66,7,65.8,7,65.6
				c0,0,0,0,0-0.1C7,65.2,7.2,65,7.5,65z"/>
		</g>
		<g id="Rectangle_60" transform="translate(790 1154)">
			<rect x="0" y="0" class="st2" width="141" height="135"/>
			<rect x="0.5" y="0.5" class="st3" width="140" height="134"/>
		</g>
	</g>
	<g class="st4">
		<path class="st5" d="M810.4,1210.3c0-1,0.2-1.7,0.7-2.2s1.1-0.8,2.1-0.8s1.6,0.3,2.1,0.8s0.7,1.3,0.7,2.2v0.5h-1.8v-0.6
			c0-0.4-0.1-0.7-0.2-0.9c-0.2-0.2-0.4-0.3-0.7-0.3c-0.3,0-0.5,0.1-0.7,0.3c-0.2,0.2-0.2,0.5-0.2,0.9c0,0.4,0.1,0.8,0.3,1.1
			c0.2,0.3,0.4,0.6,0.7,0.9c0.3,0.3,0.6,0.6,0.9,0.8c0.3,0.3,0.6,0.6,0.9,0.9c0.3,0.3,0.5,0.7,0.7,1.1s0.3,0.9,0.3,1.5
			c0,1-0.2,1.7-0.7,2.2c-0.5,0.5-1.2,0.8-2.1,0.8s-1.6-0.3-2.1-0.8c-0.5-0.5-0.7-1.3-0.7-2.2v-0.8h1.8v0.9c0,0.4,0.1,0.7,0.3,0.9
			s0.4,0.3,0.7,0.3c0.3,0,0.5-0.1,0.7-0.3s0.3-0.5,0.3-0.9c0-0.4-0.1-0.8-0.3-1.1c-0.2-0.3-0.4-0.6-0.7-0.9
			c-0.3-0.3-0.6-0.6-0.9-0.8c-0.3-0.3-0.6-0.6-0.9-0.9c-0.3-0.3-0.5-0.7-0.7-1.1C810.5,1211.3,810.4,1210.8,810.4,1210.3z"/>
		<path class="st5" d="M818.7,1210.7v8.6H817v-11.9h2.3l1.9,7.1v-7.1h1.7v11.9H821L818.7,1210.7z"/>
		<path class="st5" d="M824.1,1210.3c0-1,0.2-1.7,0.7-2.2s1.2-0.8,2.1-0.8s1.6,0.3,2.1,0.8c0.5,0.5,0.7,1.3,0.7,2.2v6.2
			c0,1-0.2,1.7-0.7,2.2c-0.5,0.5-1.2,0.8-2.1,0.8s-1.6-0.3-2.1-0.8s-0.7-1.3-0.7-2.2V1210.3z M826,1216.6c0,0.4,0.1,0.7,0.3,0.9
			c0.2,0.2,0.4,0.3,0.7,0.3c0.3,0,0.5-0.1,0.7-0.3s0.3-0.5,0.3-0.9v-6.4c0-0.4-0.1-0.7-0.3-0.9s-0.4-0.3-0.7-0.3
			c-0.3,0-0.5,0.1-0.7,0.3c-0.2,0.2-0.3,0.5-0.3,0.9V1216.6z"/>
		<path class="st5" d="M835.2,1213l-0.7,6.3h-2.6l-1.3-11.9h1.8l1,9.4l0.9-9.4h1.8l0.9,9.5l1-9.5h1.6l-1.3,11.9h-2.5L835.2,1213z"/>
		<path class="st5" d="M843.4,1207.4c1,0,1.7,0.2,2.1,0.7c0.4,0.5,0.7,1.1,0.7,2.1v0.4c0,0.6-0.1,1.1-0.3,1.5s-0.5,0.7-0.9,0.9
			c0.5,0.2,0.9,0.5,1.1,0.9c0.2,0.4,0.3,1,0.3,1.6v1c0,0.9-0.2,1.6-0.7,2.1c-0.5,0.5-1.2,0.7-2.1,0.7h-2.9v-11.9H843.4z
			 M842.5,1209.1v3.1h0.7c0.4,0,0.6-0.1,0.8-0.3c0.2-0.2,0.3-0.5,0.3-1v-0.7c0-0.4-0.1-0.7-0.2-0.9c-0.2-0.2-0.4-0.3-0.7-0.3H842.5z
			 M842.5,1213.9v3.7h1.1c0.3,0,0.6-0.1,0.7-0.3c0.2-0.2,0.2-0.5,0.2-0.9v-1c0-0.6-0.1-0.9-0.3-1.1s-0.5-0.3-0.9-0.3H842.5z"/>
		<path class="st5" d="M847.3,1210.3c0-1,0.2-1.7,0.7-2.2s1.2-0.8,2.1-0.8s1.6,0.3,2.1,0.8c0.5,0.5,0.7,1.3,0.7,2.2v6.2
			c0,1-0.2,1.7-0.7,2.2c-0.5,0.5-1.2,0.8-2.1,0.8s-1.6-0.3-2.1-0.8s-0.7-1.3-0.7-2.2V1210.3z M849.2,1216.6c0,0.4,0.1,0.7,0.3,0.9
			c0.2,0.2,0.4,0.3,0.7,0.3s0.5-0.1,0.7-0.3s0.3-0.5,0.3-0.9v-6.4c0-0.4-0.1-0.7-0.3-0.9s-0.4-0.3-0.7-0.3s-0.5,0.1-0.7,0.3
			c-0.2,0.2-0.3,0.5-0.3,0.9V1216.6z"/>
		<path class="st5" d="M860.3,1219.3h-1.9l-0.3-2.2h-2.3l-0.3,2.2h-1.7l1.9-11.9h2.7L860.3,1219.3z M856,1215.5h1.8l-0.9-6
			L856,1215.5z"/>
		<path class="st5" d="M865,1219.3c0-0.1,0-0.2-0.1-0.2c0-0.1,0-0.2-0.1-0.3c0-0.1,0-0.2,0-0.4c0-0.2,0-0.4,0-0.6v-1.9
			c0-0.6-0.1-0.9-0.3-1.2s-0.5-0.3-0.9-0.3H863v4.8h-1.9v-11.9h2.8c1,0,1.7,0.2,2.1,0.7c0.4,0.5,0.7,1.1,0.7,2.1v0.9
			c0,1.2-0.4,2-1.2,2.4c0.5,0.2,0.8,0.5,1,0.9s0.3,1,0.3,1.6v1.8c0,0.3,0,0.6,0,0.8c0,0.2,0.1,0.4,0.2,0.7H865z M863,1209.1v3.7h0.7
			c0.4,0,0.6-0.1,0.8-0.3c0.2-0.2,0.3-0.5,0.3-1v-1.2c0-0.4-0.1-0.7-0.2-0.9c-0.2-0.2-0.4-0.3-0.7-0.3H863z"/>
		<path class="st5" d="M868,1207.4h3c0.9,0,1.6,0.2,2.1,0.7c0.5,0.5,0.7,1.2,0.7,2.2v6c0,1-0.2,1.7-0.7,2.2
			c-0.5,0.5-1.2,0.7-2.1,0.7h-3V1207.4z M869.8,1209.1v8.5h1.1c0.3,0,0.5-0.1,0.7-0.3s0.3-0.5,0.3-0.9v-6.2c0-0.4-0.1-0.7-0.3-0.9
			s-0.4-0.3-0.7-0.3H869.8z"/>
		<path class="st5" d="M876.8,1212.4h2.6v1.7h-2.6v3.5h3.2v1.7h-5.1v-11.9h5.1v1.7h-3.2V1212.4z"/>
		<path class="st5" d="M885.1,1219.3c0-0.1,0-0.2-0.1-0.2c0-0.1,0-0.2-0.1-0.3c0-0.1,0-0.2,0-0.4c0-0.2,0-0.4,0-0.6v-1.9
			c0-0.6-0.1-0.9-0.3-1.2c-0.2-0.2-0.5-0.3-0.9-0.3H883v4.8h-1.9v-11.9h2.8c1,0,1.7,0.2,2.1,0.7c0.4,0.5,0.7,1.1,0.7,2.1v0.9
			c0,1.2-0.4,2-1.2,2.4c0.5,0.2,0.8,0.5,1,0.9s0.3,1,0.3,1.6v1.8c0,0.3,0,0.6,0,0.8c0,0.2,0.1,0.4,0.2,0.7H885.1z M883,1209.1v3.7
			h0.7c0.4,0,0.6-0.1,0.8-0.3c0.2-0.2,0.3-0.5,0.3-1v-1.2c0-0.4-0.1-0.7-0.2-0.9c-0.2-0.2-0.4-0.3-0.7-0.3H883z"/>
	</g>
</g>
</svg>
