<svg xmlns="http://www.w3.org/2000/svg" xmlns:xlink="http://www.w3.org/1999/xlink" width="71.688" height="71.688" viewBox="0 0 71.688 71.688"><defs><style>.a{fill:none;}.b{fill:url(#a);}</style><linearGradient id="a" x1="0.5" x2="0.5" y2="1" gradientUnits="objectBoundingBox"><stop offset="0" stop-color="#2ea6ae"/><stop offset="0.178" stop-color="#2ea5ad" stop-opacity="0.973"/><stop offset="0.377" stop-color="#2fa4ac" stop-opacity="0.898"/><stop offset="0.588" stop-color="#30a3ab" stop-opacity="0.773"/><stop offset="0.805" stop-color="#32a1a9" stop-opacity="0.596"/><stop offset="1" stop-color="#35a0a8" stop-opacity="0.4"/></linearGradient></defs><g transform="translate(0)"><path class="a" d="M0,71.689V0H71.689V71.689Z"/><g transform="translate(8.961 8.961)"><path class="b" d="M63.318,21.5H33.448A11.949,11.949,0,0,0,21.5,33.448v29.87A11.949,11.949,0,0,0,33.448,75.266h29.87A11.949,11.949,0,0,0,75.266,63.318V33.448A11.949,11.949,0,0,0,63.318,21.5Zm.149,19.457v1.025c0,9.729-7.426,21-21,21A21.5,21.5,0,0,1,31.208,59.65H33a16.56,16.56,0,0,0,9.218-3.074,7.466,7.466,0,0,1-6.912-5.12,11.186,11.186,0,0,1,1.281.257,5.624,5.624,0,0,0,2.049-.257,7.4,7.4,0,0,1-5.887-7.169,12.775,12.775,0,0,0,3.328,1.025c-2.049-1.792-3.328-3.841-3.328-6.4a5.88,5.88,0,0,1,1.025-3.584,20.782,20.782,0,0,0,15.105,7.68c0-.511-.257-1.025-.257-1.792a7.431,7.431,0,0,1,7.426-7.426,6.975,6.975,0,0,1,5.377,2.3A12.429,12.429,0,0,0,66.034,34.3a7.484,7.484,0,0,1-3.328,4.1,14.005,14.005,0,0,0,4.352-1.281,17.29,17.29,0,0,1-3.59,3.844Z" transform="translate(-21.5 -21.5)"/></g></g></svg>