<svg xmlns="http://www.w3.org/2000/svg" width="48.741" height="96.353" viewBox="0 0 48.741 96.353"><g transform="translate(14783.978 -2480.002)"><path d="M230.7,343.22a9.155,9.155,0,0,0,0,18.308,9.154,9.154,0,1,0,0-18.308Z" transform="translate(-14990.419 2214.827)" fill="#35a0a7"/><path d="M207.441,140c-16.049,0-23.419,9.51-23.419,15.93,0,4.637,3.923,6.776,7.133,6.776,6.419,0,3.8-9.154,15.93-9.154,5.944,0,10.7,2.616,10.7,8.084,0,6.42-6.657,10.105-10.58,13.434a21.831,21.831,0,0,0-5.918,7.606c-1.2,2.613-.74,18.16-.74,22.587,0,6.182,1.664,7.965,6.538,7.965,5.825,0,7.014-2.615,7.014-4.874,0-6.182-1.188-21.872,5.35-26.983,3.21-2.5,13.315-10.58,13.315-21.755S222.658,140,207.441,140Z" transform="translate(-14968 2340)" fill="#35a0a7"/></g></svg>