<svg id="Layer_1" data-name="Layer 1" xmlns="http://www.w3.org/2000/svg" viewBox="0 0 70.42 42.89"><defs><style>.cls-1,.cls-3{fill:#f9f9f9;stroke:#1d2027;stroke-miterlimit:10;}.cls-2{fill:#1d2027;}.cls-3{stroke-linecap:round;stroke-width:0.82px;}.cls-4{fill:#35a0a8;}</style></defs><title>offpiste_possibilities</title><g id="small_tree" data-name="small tree"><path class="cls-1" d="M79.86,24.74,85.7,40a.32.32,0,0,1-.3.44H73.72a.32.32,0,0,1-.3-.44l5.84-15.21A.32.32,0,0,1,79.86,24.74Z" transform="translate(-30.07 -10.46)"/><rect class="cls-2" x="48.08" y="29.5" width="2.8" height="4.23" rx="0.71" ry="0.71"/></g><path class="cls-3" d="M100.08,49.94c-.17-6.85-7.39-11.26-14.62-11.26a15.6,15.6,0,0,0-4.83.76A4.24,4.24,0,0,1,75.33,37c-1.73-4.39-5.1-7.37-9-7.37a8.71,8.71,0,0,0-6.57,3.32,4.37,4.37,0,0,1-5.26,1.2,16.15,16.15,0,0,0-7.28-1.73A16.93,16.93,0,0,0,30.57,49.57" transform="translate(-30.07 -10.46)"/><path class="cls-1" d="M40.46,11.28,49.4,34.56a.49.49,0,0,1-.46.67H31.07a.49.49,0,0,1-.46-.67l8.93-23.28A.49.49,0,0,1,40.46,11.28Z" transform="translate(-30.07 -10.46)"/><rect class="cls-2" x="8.53" y="24.8" width="2.8" height="4.23" rx="0.71" ry="0.71"/><path class="cls-1" d="M87.81,19.55l8.93,23.28a.49.49,0,0,1-.46.67H78.42a.49.49,0,0,1-.46-.67l8.93-23.28A.49.49,0,0,1,87.81,19.55Z" transform="translate(-30.07 -10.46)"/><rect class="cls-2" x="55.88" y="33.07" width="2.8" height="4.23" rx="0.71" ry="0.71"/><g id="small_tree-2" data-name="small tree"><path class="cls-1" d="M53.16,23.3,59,38.52a.32.32,0,0,1-.3.44H47a.32.32,0,0,1-.3-.44L52.56,23.3A.32.32,0,0,1,53.16,23.3Z" transform="translate(-30.07 -10.46)"/><rect class="cls-2" x="21.38" y="28.07" width="2.8" height="4.23" rx="0.71" ry="0.71"/></g><path class="cls-4" d="M65.82,45.85l.8-.59s.11-.06.12,0c.36.35,1,0,1.3.46,0,0,0,0,.16.06-.44-.77-.83-1.48-1.25-2.17a1,1,0,0,0-.42-.29l-1.78-.88a1.84,1.84,0,0,1-.77-.78,3.16,3.16,0,0,1-.15-3.33,3.47,3.47,0,0,0,.16-.47,11,11,0,0,1-1.1.29,1.51,1.51,0,0,0-1.22.89.77.77,0,0,1-.14.2,1,1,0,0,0-.15,1.3.85.85,0,0,1-.75,1.15,8.83,8.83,0,0,1-1.22-.16.36.36,0,0,1-.22-.27c0-.3-.16-.35-.42-.36l-6.63-.45L45.61,40a3.36,3.36,0,0,0-.63.09l-.46-.24.46-.18a4.53,4.53,0,0,0,.75.19l8.65.53,4.59.27c.14-.27.27-.5.38-.73.33-.71.69-1.42,1-2.15a2.31,2.31,0,0,1,1.08-1.25c.62-.34,1.23-.7,1.82-1.09a13.84,13.84,0,0,1,3.38-1.61c.43-.14.45-.15.59.28a1.66,1.66,0,0,0,1.33,1.31,1.37,1.37,0,0,0,1.38-.54c.28-.37.36-.38.78-.15a17.83,17.83,0,0,1,2.59,2.1c.78.64,1.57,1.27,2.37,1.88a1.22,1.22,0,0,0,.58.16.78.78,0,0,1,.62,1,1.14,1.14,0,0,0,0,1.13c.5,1.06.95,2.14,1.43,3.21a2.92,2.92,0,0,0,.3.39c0,.06.08.17,0,.2a.32.32,0,0,1-.22.11s-.11-.1-.13-.17a3.9,3.9,0,0,0-.13-.57c-.52-1.16-1.06-2.32-1.59-3.48-.07-.16-.12-.33-.36-.3a.25.25,0,0,1-.18-.13c-.13-.29-.38-.32-.64-.39a4.16,4.16,0,0,1-1-.37c-1.24-.71-2.47-1.43-3.69-2.17-.23-.14-.35-.13-.5.1-.38.57-.78,1.12-1.19,1.67a.57.57,0,0,0-.08.65,12.13,12.13,0,0,0,.69,1.35c.74,1.1,1.52,2.16,2.27,3.25a3.94,3.94,0,0,1,.45.93c.25.72.46,1.46.7,2.18a2,2,0,0,0,.25.4l0,0a5.68,5.68,0,0,0,2.36,1.45c2,.67,3.9,1.41,5.85,2.13l.39.15a2.55,2.55,0,0,1-1,1.17,1,1,0,0,1-.72,0c-.64-.24-.63-.26-1.09.22s-.52.49-1.09.14c-2.82-1.73-5.63-3.47-8.46-5.17-1.12-.67-2.3-1.26-3.45-1.88Z" transform="translate(-30.07 -10.46)"/><path class="cls-4" d="M67.42,33.55a2.44,2.44,0,0,1,.79-1.87,1.2,1.2,0,0,1,2,.41,2.42,2.42,0,0,1-.46,2.58,1.23,1.23,0,0,1-2.17-.49A4.14,4.14,0,0,1,67.42,33.55Z" transform="translate(-30.07 -10.46)"/></svg>