<svg id="Layer_1" data-name="Layer 1" xmlns="http://www.w3.org/2000/svg" viewBox="0 0 38.85 44.48"><defs><style>.cls-1{fill:#35a0a8;}.cls-2,.cls-3{fill:#f9f9f9;}.cls-3,.cls-5{stroke:#1d2027;stroke-miterlimit:10;}.cls-3{stroke-width:0.74px;}.cls-4{fill:#1d2027;}.cls-5{fill:none;stroke-width:0.75px;}</style></defs><title>skischool_kids</title><ellipse class="cls-1" cx="74.84" cy="38.39" rx="2.74" ry="9.35" transform="translate(-48.1 50.59) rotate(-45)"/><ellipse class="cls-1" cx="51.9" cy="38.39" rx="9.35" ry="2.74" transform="translate(-54.82 34.38) rotate(-45)"/><path class="cls-1" d="M74.64,43.51c1.44,8.78-5.13,13-11.47,13s-13.09-5-11.47-13c1.43-7,5.13-13,11.47-13S73.48,36.42,74.64,43.51Z" transform="translate(-42.88 -13.57)"/><circle class="cls-1" cx="20.29" cy="10.63" r="10.63"/><ellipse class="cls-2" cx="20.57" cy="13" rx="7.79" ry="8.21"/><path class="cls-2" d="M73.07,45.28c1.24,7.58-4.44,11.23-9.91,11.23s-11.31-4.31-9.91-11.23C54.49,39.2,57.69,34,63.17,34S72.07,39.16,73.07,45.28Z" transform="translate(-42.88 -13.57)"/><path class="cls-1" d="M57.79,56.51c2.43,0,4.45.5,5,1.17,0,0,0-.1,0-.15,0-2.23-2.25-4-5-4s-5,1.8-5,4c0,0,0,.1,0,.15C53.34,57,55.36,56.51,57.79,56.51Z" transform="translate(-42.88 -13.57)"/><path class="cls-1" d="M68.44,56.51c2.43,0,4.45.5,5,1.17,0,0,0-.1,0-.15,0-2.23-2.25-4-5-4s-5,1.8-5,4c0,0,0,.1,0,.15C64,57,66,56.51,68.44,56.51Z" transform="translate(-42.88 -13.57)"/><ellipse class="cls-1" cx="18.11" cy="11.34" rx="0.63" ry="1.66"/><ellipse class="cls-1" cx="23.13" cy="11.34" rx="0.63" ry="1.66"/><path class="cls-3" d="M49.68,16.89h3.13a.57.57,0,0,1,.57.57v38a2.14,2.14,0,0,1-2.14,2.14h0a2.14,2.14,0,0,1-2.14-2.14v-38a.57.57,0,0,1,.57-.57Z" transform="translate(68.87 42.5) rotate(161.26)"/><rect class="cls-4" x="49.32" y="34.74" width="2.48" height="1" rx="0.2" ry="0.2" transform="translate(66.88 38.8) rotate(161.26)"/><rect class="cls-4" x="50.59" y="38.48" width="2.48" height="1" rx="0.2" ry="0.2" transform="translate(70.56 45.67) rotate(161.26)"/><path class="cls-3" d="M51.67,16.89h0A2.14,2.14,0,0,1,53.81,19V57a.57.57,0,0,1-.57.57H50.1a.57.57,0,0,1-.57-.57V19a2.14,2.14,0,0,1,2.14-2.14Z" transform="translate(-45.9 -8.98) rotate(-4.94)"/><rect class="cls-4" x="50.25" y="34.64" width="2.48" height="1" rx="0.2" ry="0.2" transform="translate(-45.71 -9) rotate(-4.94)"/><rect class="cls-4" x="50.59" y="38.57" width="2.48" height="1" rx="0.2" ry="0.2" transform="translate(-46.05 -8.96) rotate(-4.94)"/><rect class="cls-4" x="76.07" y="31.62" width="0.48" height="24.1" transform="translate(-39.9 -18.41) rotate(3.7)"/><rect class="cls-4" x="75.26" y="32.5" width="3.48" height="1.12" rx="0.56" ry="0.56" transform="matrix(-0.06, 1, -1, -0.06, 72.09, -55.22)"/><path class="cls-5" d="M74.37,55.72" transform="translate(-42.88 -13.57)"/><path class="cls-4" d="M74.69,55.48a.08.08,0,0,0-.08.08h0a.08.08,0,0,0,.08.09l1.71.11h0a.08.08,0,0,0,.08-.08h0a.08.08,0,0,0-.08-.09l-1.71-.11Z" transform="translate(-42.88 -13.57)"/><path class="cls-4" d="M74.69,55.48a.08.08,0,0,0-.08.08h0a.08.08,0,0,0,.08.09l1.71.11h0a.08.08,0,0,0,.08-.08h0a.08.08,0,0,0-.08-.09l-1.71-.11Z" transform="translate(-42.88 -13.57)"/><path class="cls-4" d="M76.34,54.51h0m-.72-.13a.08.08,0,0,0-.08.08l-.11,1.71a.08.08,0,0,0,.08.09h0a.08.08,0,0,0,.08-.08l.11-1.71a.08.08,0,0,0-.08-.09h0Z" transform="translate(-42.88 -13.57)"/><rect class="cls-4" x="76.06" y="31.6" width="0.48" height="24.1" transform="translate(-45.61 -8.41) rotate(-3.81)"/><rect class="cls-4" x="73.85" y="32.48" width="3.48" height="1.12" rx="0.56" ry="0.56" transform="matrix(0.07, 1, -1, 0.07, 60.67, -58.14)"/><path class="cls-5" d="M75.95,55.85" transform="translate(-42.88 -13.57)"/><path class="cls-4" d="M78,55.46h0l-1.71.11a.08.08,0,0,0-.08.09h0a.08.08,0,0,0,.08.08h0L78,55.64a.08.08,0,0,0,.08-.09h0a.08.08,0,0,0-.08-.08Z" transform="translate(-42.88 -13.57)"/><path class="cls-4" d="M78,55.46h0l-1.71.11a.08.08,0,0,0-.08.09h0a.08.08,0,0,0,.08.08h0L78,55.64a.08.08,0,0,0,.08-.09h0a.08.08,0,0,0-.08-.08Z" transform="translate(-42.88 -13.57)"/><path class="cls-4" d="M77,54.36h0a.08.08,0,0,0-.08.09L77,56.16a.08.08,0,0,0,.08.08h0a.08.08,0,0,0,.08-.09l-.11-1.71a.08.08,0,0,0-.08-.08Z" transform="translate(-42.88 -13.57)"/><path class="cls-1" d="M63.38,29.51a7.92,7.92,0,0,1-4-1,6,6,0,0,0,4,2,6,6,0,0,0,4-2A7.87,7.87,0,0,1,63.38,29.51Z" transform="translate(-42.88 -13.57)"/></svg>