<?xml version="1.0" encoding="utf-8"?>
<!-- Generator: Adobe Illustrator 22.1.0, SVG Export Plug-In . SVG Version: 6.00 Build 0)  -->
<svg version="1.1" id="Layer_1" xmlns="http://www.w3.org/2000/svg" xmlns:xlink="http://www.w3.org/1999/xlink" x="0px" y="0px"
	 viewBox="0 0 40 55.9" style="enable-background:new 0 0 40 55.9;" xml:space="preserve">
<style type="text/css">
	.st0{fill:#35A0A8;}
</style>
<title>snowpar_facilities</title>
<path d="M35.4,32.3c0,0.1,0,0.3,0,0.4c0,8.4-6.8,15.2-15.2,15.2S5.1,41,5.1,32.7c0-0.1,0-0.3,0-0.4H0.2v23.4h39.9V32.3H35.4z"/>
<g>
	<path class="st0" d="M4.5,30.3c0.7-1.1,1.4-2.2,2.1-3.3c0.3-0.4,0.6-0.8,1-1.2c0.1-0.1,0.1-0.2,0.1-0.3c0.1-0.3,0-0.6,0.1-0.9
		C7.3,25,6.9,25.5,6.5,26l-1,1.9c-0.2,0.4-0.6,0.6-1,0.4s-0.6-0.6-0.4-1c0,0,0-0.1,0.1-0.1c0.4-0.7,0.7-1.4,1.1-2.1
		c0.1-0.2,0.3-0.5,0.5-0.6c0.4-0.5,0.9-0.9,1.4-1.3c0.4-0.3,0.8-0.5,1.2-0.8c0.7-0.4,1.4-0.7,2.1-1.1c0.2-0.1,0.3-0.2,0.4-0.3
		c0.1-0.1,0.2-0.2,0.3-0.3c0.9-1.1,1.9-2.1,3-3c0.3-0.3,0.8-0.2,1.1,0.1l0,0c0.3,0.3,0.3,0.8,0,1.1l0,0c-0.4,0.4-0.8,0.7-1.2,1.1
		c-0.6,0.5-1.1,1-1.5,1.6c-0.3,0.3-0.5,0.6-0.8,0.9c0,0-0.1,0.1-0.1,0.2c-0.3,1.1-0.5,2.3-0.8,3.4c0,0.1,0,0.2,0.1,0.2
		c0.7,0.9,1.3,1.9,2,2.8c0.3,0.3,0.4,0.8,0.3,1.2c-0.3,1.6-0.5,3.1-0.8,4.7c0,0.1-0.1,0.2-0.1,0.3c-0.1,0.1-0.1,0.2-0.2,0.3l0.1,0.1
		l1.9,1.4c0.4,0.3,0.8,0.5,1.3,0.7c0.1,0,0.2,0.1,0.3,0.1c0.1,0,0.2,0.1,0.2,0.2c0,0.1-0.1,0.1-0.2,0.2c-0.4,0.2-0.9,0.1-1.2-0.1
		c-1.2-0.8-2.4-1.6-3.6-2.4c-3-2-6-4-9-6c-0.3-0.2-0.6-0.5-0.8-0.8c-0.2-0.2-0.2-0.6,0-0.8c0.1-0.1,0.2-0.1,0.4,0l3.1,2.3L4.5,30.3z
		 M6,31.4l4.3,3c0.2-1.4,0.5-2.8,0.7-4.2c0-0.1,0-0.2-0.1-0.3c-0.5-0.7-1-1.4-1.5-2.1c0-0.1-0.1-0.1-0.2-0.1
		c-0.2-0.1-0.3-0.1-0.5-0.2c-0.1,0-0.1,0-0.2,0c-0.2,0.2-0.3,0.4-0.5,0.6C7.4,29.3,6.8,30.3,6,31.4z"/>
	<path class="st0" d="M7.4,18.8c0.9-0.4,1.9,0,2.3,0.9c0.4,0.9,0,1.9-0.9,2.3s-1.9,0-2.3-0.9l0,0C6.1,20.2,6.5,19.2,7.4,18.8
		L7.4,18.8z"/>
</g>
</svg>
