<svg id="Layer_1" data-name="Layer 1" xmlns="http://www.w3.org/2000/svg" viewBox="0 0 48.67 55.29"><defs><style>.cls-1{fill:#1d2027;}.cls-2,.cls-3,.cls-4,.cls-5,.cls-6{fill:none;stroke:#1d2027;stroke-miterlimit:10;}.cls-2,.cls-6{stroke-linecap:round;}.cls-4{stroke-width:0.98px;}.cls-5{stroke-width:0.99px;}.cls-6{stroke-width:0.87px;}</style></defs><title>skisystem_standard</title><circle class="cls-1" cx="24.64" cy="8.07" r="2.3"/><polyline class="cls-2" points="48.17 0.5 24.64 6.24 0.5 12.13"/><line class="cls-3" x1="24.85" y1="5.83" x2="24.85" y2="18.83"/><path class="cls-4" d="M10.22,18.83h28a4.26,4.26,0,0,1,4.26,4.26V37.36a.92.92,0,0,1-.92.92H7a1,1,0,0,1-1-1V23.09A4.27,4.27,0,0,1,10.22,18.83Z"/><path class="cls-5" d="M80.29,44.68l-3.54,8.83A1.94,1.94,0,0,1,75,54.74H49.83A1.94,1.94,0,0,1,48,53.52l-3.59-8.78Z" transform="translate(-38.15 -6.41)"/><line class="cls-3" x1="23.85" y1="37.83" x2="23.85" y2="51.83"/><line class="cls-2" x1="12.35" y1="44.33" x2="36.35" y2="44.33"/><path class="cls-6" d="M13.86,51.83H34.19A2.16,2.16,0,0,1,36.35,54v0a.87.87,0,0,1-.87.87h-23a.79.79,0,0,1-.79-.79v-.12a2.11,2.11,0,0,1,2.11-2.11Z"/></svg>