<svg id="Layer_1" data-name="Layer 1" xmlns="http://www.w3.org/2000/svg" viewBox="0 0 76.75 62"><defs><style>.cls-1,.cls-3,.cls-6,.cls-8,.cls-9{fill:none;}.cls-1,.cls-3,.cls-5,.cls-6,.cls-7,.cls-8,.cls-9{stroke:#1d2027;stroke-miterlimit:10;}.cls-2{fill:#35a0a8;}.cls-3,.cls-5,.cls-6,.cls-7,.cls-8,.cls-9{stroke-linecap:round;}.cls-4{fill:#1d2027;}.cls-5,.cls-7{fill:#f9f9f9;}.cls-5{stroke-width:0.86px;}.cls-6{stroke-width:0.85px;}.cls-7{stroke-width:0.84px;}.cls-8{stroke-width:0.83px;}.cls-9{stroke-width:0.82px;}</style></defs><title>cosyness_of_town</title><path class="cls-1" d="M65,9.37H75.26a1,1,0,0,1,.69.27l6.9,6.54a1,1,0,0,1,.31.73V59.37a1,1,0,0,1-1,1h-24a1,1,0,0,1-1-1v-43a1,1,0,0,1,.35-.76l6.87-6A1,1,0,0,1,65,9.37Z" transform="translate(-23.91 -4.37)"/><polyline class="cls-1" points="40.75 5 47.25 11.89 47.25 56.5"/><line class="cls-1" x1="46.75" y1="12" x2="58.75" y2="12"/><rect class="cls-2" x="62.46" y="20.74" width="2.74" height="4" rx="1.37" ry="1.37" transform="translate(62.66 -45.46) rotate(90)"/><rect class="cls-2" x="62.46" y="25.68" width="2.74" height="4" rx="1.37" ry="1.37" transform="translate(67.6 -40.52) rotate(90)"/><rect class="cls-2" x="62.46" y="30.62" width="2.74" height="4" rx="1.37" ry="1.37" transform="translate(72.54 -35.58) rotate(90)"/><line class="cls-3" x1="41.25" y1="0.5" x2="41.25" y2="4.5"/><line class="cls-3" x1="42.75" y1="2" x2="39.75" y2="2"/><path class="cls-4" d="M88.94,38.85a11,11,0,0,1,.31-1.42,2.09,2.09,0,0,1,1.64-1.32.59.59,0,0,0,.51-.48,2.62,2.62,0,0,1,2.52-1.93,1,1,0,0,1,1.15.92,1,1,0,0,1-1,1c-.65.08-.78.21-.86.85,0,.14,0,.29,0,.43a1,1,0,0,1-1,1c-1.41.05-1.18.16-1.27,1.28a1,1,0,0,1-1,1,1,1,0,0,1-1-1c0-.1,0-.2,0-.3Z" transform="translate(-23.91 -4.37)"/><path class="cls-4" d="M96.26,33.25a1.07,1.07,0,0,1-1.15-.52,1,1,0,0,1,.79-1.43,6.09,6.09,0,0,1,.73,0,1,1,0,1,1,0,2Z" transform="translate(-23.91 -4.37)"/><path class="cls-4" d="M99.32,31.26c-.14,0-.29,0-.43,0a1,1,0,0,1-.88-.94.92.92,0,0,1,.83-1,5.18,5.18,0,0,1,.86,0,1,1,0,0,1,1,1,1,1,0,0,1-.95,1h-.39Z" transform="translate(-23.91 -4.37)"/><path class="cls-5" d="M56.34,65.94H27a.86.86,0,0,1-.86-.86V53a.86.86,0,0,1,.3-.66l5.76-4.93A1.72,1.72,0,0,1,33.34,47H51.71a1.72,1.72,0,0,1,1.26.55l4,4.31a.86.86,0,0,1,.23.59V65.08A.86.86,0,0,1,56.34,65.94Z" transform="translate(-23.91 -4.37)"/><path class="cls-6" d="M56.77,52.15H40a.85.85,0,0,1-.52-.17L33,47" transform="translate(-23.91 -4.37)"/><line class="cls-3" x1="16.25" y1="61.5" x2="16.29" y2="47.98"/><rect class="cls-4" x="7.18" y="50.87" width="3.5" height="11.13" rx="1.24" ry="1.24"/><rect class="cls-4" x="26.48" y="40.08" width="2.18" height="5" rx="0.92" ry="0.92"/><rect class="cls-2" x="19.86" y="53" width="2.36" height="3.45" rx="1.18" ry="1.18"/><rect class="cls-2" x="24.12" y="53" width="2.36" height="3.45" rx="1.18" ry="1.18"/><rect class="cls-2" x="28.38" y="53" width="2.36" height="3.45" rx="1.18" ry="1.18"/><path class="cls-7" d="M94.38,63.6H66a.84.84,0,0,1-.84-.84V51a.84.84,0,0,1,.29-.63L71,45.63a1.67,1.67,0,0,1,1.09-.4H89.9a1.67,1.67,0,0,1,1.22.53L95,49.94a.84.84,0,0,1,.22.57V62.76A.84.84,0,0,1,94.38,63.6Z" transform="translate(-23.91 -4.37)"/><path class="cls-8" d="M94.8,50.24H78.56a.83.83,0,0,1-.5-.17l-6.31-4.79" transform="translate(-23.91 -4.37)"/><line class="cls-3" x1="54.25" y1="58.5" x2="54.15" y2="46.07"/><rect class="cls-4" x="46.02" y="48.86" width="3.39" height="10.78" rx="1.2" ry="1.2"/><rect class="cls-4" x="64.71" y="38.42" width="2.11" height="4.85" rx="0.89" ry="0.89"/><rect class="cls-2" x="58.3" y="50.93" width="2.29" height="3.34" rx="1.14" ry="1.14"/><rect class="cls-2" x="62.43" y="50.93" width="2.29" height="3.34" rx="1.14" ry="1.14"/><rect class="cls-2" x="66.55" y="50.93" width="2.29" height="3.34" rx="1.14" ry="1.14"/><path class="cls-9" d="M24.32,41.31l9.52-14.22a1.23,1.23,0,0,1,2.2,0l5.59,8.34,3.38,5" transform="translate(-23.91 -4.37)"/><path class="cls-9" d="M41.63,35.43l6.7-6.18A2,2,0,0,1,51,29.15l5.35,4.34" transform="translate(-23.91 -4.37)"/></svg>