<svg id="Layer_1" data-name="Layer 1" xmlns="http://www.w3.org/2000/svg" viewBox="0 0 114.88 50.8"><defs><style>.cls-1,.cls-2{fill:none;stroke:#1d2027;stroke-miterlimit:10;}.cls-1{stroke-linecap:round;}.cls-2{stroke-width:1.19px;}.cls-3{fill:#35a0a8;}</style></defs><title>beautiful_nature</title><path class="cls-1" d="M4.27,64.21A143.28,143.28,0,0,1,24.42,31.75c2.17-2.15,3.81-1.9,3.81-1.9,2.59-.12,5.27,2.29,5.27,2.29a46.31,46.31,0,0,1,6.78,7.72A207.41,207.41,0,0,1,53.61,18,11.2,11.2,0,0,1,57,14.88a5.44,5.44,0,0,1,2.45-.47,4.54,4.54,0,0,1,1.86.53,16.77,16.77,0,0,1,4.49,3.75c16.36,19.11,29,35.86,29,35.86a31.75,31.75,0,0,1,4.1-6.15A4.92,4.92,0,0,1,101.69,47a3.5,3.5,0,0,1,1.8.22A8.79,8.79,0,0,1,106.61,50l11.55,14.25" transform="translate(-3.77 -13.91)"/><path class="cls-2" d="M49.79,23.61l2.36,2a4,4,0,0,0,3.61.58l1.16-.37a4.09,4.09,0,0,1,3.25.32l1.92,1.16a3.93,3.93,0,0,0,4.45-.37l3.37-3.31" transform="translate(-3.77 -13.91)"/><path class="cls-3" d="M74.8,26.89l2.66,6.94a.15.15,0,0,1-.14.2H72a.15.15,0,0,1-.14-.2l2.66-6.94A.15.15,0,0,1,74.8,26.89Z" transform="translate(-3.77 -13.91)"/><rect class="cls-3" x="70.48" y="19.84" width="0.84" height="1.26" rx="0.21" ry="0.21"/><path class="cls-3" d="M73.38,36.25,76,43.19a.15.15,0,0,1-.14.2H70.58a.15.15,0,0,1-.14-.2l2.66-6.94A.15.15,0,0,1,73.38,36.25Z" transform="translate(-3.77 -13.91)"/><rect class="cls-3" x="69.06" y="29.19" width="0.84" height="1.26" rx="0.21" ry="0.21"/><path class="cls-3" d="M107.12,47.54l2.66,6.94a.15.15,0,0,1-.14.2h-5.33a.15.15,0,0,1-.14-.2l2.66-6.94A.15.15,0,0,1,107.12,47.54Z" transform="translate(-3.77 -13.91)"/><rect class="cls-3" x="102.8" y="40.49" width="0.84" height="1.26" rx="0.21" ry="0.21"/><path class="cls-3" d="M21.76,32.13l2.66,6.94a.15.15,0,0,1-.14.2H19a.15.15,0,0,1-.14-.2l2.66-6.94A.15.15,0,0,1,21.76,32.13Z" transform="translate(-3.77 -13.91)"/><rect class="cls-3" x="17.43" y="25.07" width="0.84" height="1.26" rx="0.21" ry="0.21"/><path class="cls-3" d="M26.12,39.07,28.78,46a.15.15,0,0,1-.14.2H23.32a.15.15,0,0,1-.14-.2l2.66-6.94A.15.15,0,0,1,26.12,39.07Z" transform="translate(-3.77 -13.91)"/><rect class="cls-3" x="21.79" y="32.02" width="0.84" height="1.26" rx="0.21" ry="0.21"/><path class="cls-3" d="M81.73,34.17l3.85,10a.21.21,0,0,1-.2.29h-7.7a.21.21,0,0,1-.2-.29l3.85-10A.21.21,0,0,1,81.73,34.17Z" transform="translate(-3.77 -13.91)"/><rect class="cls-3" x="77.16" y="30.16" width="1.21" height="1.82" rx="0.31" ry="0.31"/></svg>