<svg id="Layer_1" data-name="Layer 1" xmlns="http://www.w3.org/2000/svg" viewBox="0 0 114.88 53.44"><defs><style>.cls-1{fill:#fff;}</style></defs><title>Artboard 1</title><path class="cls-1" d="M114.77,50,103.28,35.77a9.38,9.38,0,0,0-3.34-2.9,4,4,0,0,0-2.06-.26,5.53,5.53,0,0,0-3.13,1.56A32.36,32.36,0,0,0,91,39.71C88.5,36.49,76.83,21.3,62.41,4.46A17.09,17.09,0,0,0,57.78.59,5,5,0,0,0,55.7,0,6,6,0,0,0,53,.54a11.7,11.7,0,0,0-3.55,3.28A208.45,208.45,0,0,0,36.45,25a46.59,46.59,0,0,0-6.39-7.14c-.11-.11-2.86-2.57-5.52-2.41-.08,0-1.92-.27-4.28,2.07A144.26,144.26,0,0,0,0,50.15a.5.5,0,0,0,.26.66.45.45,0,0,0,.2,0,.51.51,0,0,0,.46-.3A142.75,142.75,0,0,1,21,18.21c1.93-1.92,3.38-1.77,3.48-1.76,2.34-.09,4.89,2.14,4.91,2.16a45.21,45.21,0,0,1,6.71,7.64l.47.67.38-.73A209.45,209.45,0,0,1,50.24,4.4a10.61,10.61,0,0,1,3.19-3A5.06,5.06,0,0,1,55.65,1a4,4,0,0,1,1.64.46A16.24,16.24,0,0,1,61.65,5.1C77.81,24,90.5,40.77,90.63,40.94l.48.64.37-.71a30.89,30.89,0,0,1,4-6A4.37,4.37,0,0,1,98,33.61a3,3,0,0,1,1.5.16,8.39,8.39,0,0,1,3,2.6L114,50.66a.5.5,0,0,0,.78-.62Z"/><path class="cls-1" d="M71,42.13a27.73,27.73,0,0,1-4.7-.53,3.17,3.17,0,0,1-2.75-2.85s0-1.57,3.93-4.78a7.34,7.34,0,0,0,2.35-2.16A3.77,3.77,0,0,0,69.3,27a7.24,7.24,0,0,0-5.08-2.15s-4.89.52-8.23-1.14a4.37,4.37,0,0,1-1.15-1.18L54.91,20a4.52,4.52,0,0,1,.65-.81s1.54-1.63,7.7-4.37a.51.51,0,0,0,.26-.66.5.5,0,0,0-.66-.26C57.28,16.37,55.38,18,55,18.39l.12-5a2.81,2.81,0,1,0-.7,0l-.15,5.8a3.24,3.24,0,0,0-.1,4.06l-.61,24.53a2.81,2.81,0,0,0-1.59.69l-14.7-13a30.76,30.76,0,0,1,4-4.54c.15-.15.32-.28.48-.42,1-.81,5.89-5.1,5.89-9.76a.5.5,0,1,0-1,0c0,4.21-4.61,8.23-5.53,9l-.53.47a32.38,32.38,0,0,0-4.09,4.59l-10.23-9a2.84,2.84,0,0,0,.51-1.63,2.89,2.89,0,1,0-2.89,2.89,2.83,2.83,0,0,0,1.91-.74l10.3,9.09a17.67,17.67,0,0,0-3.14,7,.51.51,0,0,0,.44.56h.06a.51.51,0,0,0,.5-.44,17,17,0,0,1,2.9-6.47L51.45,49a2.76,2.76,0,0,0-.5,1.6,2.84,2.84,0,1,0,3.26-2.8L54.8,24a5.19,5.19,0,0,0,.7.55c3.65,1.82,8.63,1.29,8.77,1.27a6.32,6.32,0,0,1,4.34,1.86A2.79,2.79,0,0,1,69,31.25,6.29,6.29,0,0,1,67,33.15c-4.39,3.58-4.4,5.38-4.36,5.66a4.12,4.12,0,0,0,3.58,3.78,29.15,29.15,0,0,0,4.84.54c2.81.13,4.79,2.95,4.81,3a.5.5,0,0,0,.41.22.47.47,0,0,0,.28-.09.49.49,0,0,0,.13-.69C76.55,45.4,74.37,42.28,71,42.13Z"/><path class="cls-1" d="M29.3,33.89c-.07,0-1.59-.69-8-1.86a.5.5,0,1,0-.18,1c6.2,1.13,7.74,1.79,7.78,1.8a2.26,2.26,0,0,1,.92.53,3,3,0,0,1-1.35.69,41.45,41.45,0,0,1-8.48.51,13.52,13.52,0,0,0-4.82.87c-.82.32-1.3.8-1.35,1.36A1.36,1.36,0,0,0,14.62,40a8.75,8.75,0,0,0,2.26.84c2.84,1,3.61,1.54,3.81,1.73-.23.4-1.54.75-2.69.82-2.73.22-4.7.22-4.72.22A11.91,11.91,0,0,0,7.85,45a.49.49,0,0,0-.21.67.5.5,0,0,0,.44.27.46.46,0,0,0,.23-.06,11.06,11.06,0,0,1,5-1.25s2,0,4.79-.22c.58,0,3.47-.28,3.63-1.71.15-.5-.14-1.33-4.55-2.8a7.71,7.71,0,0,1-2-.75c-.22-.13-.3-.25-.29-.3s.15-.3.71-.52a11.42,11.42,0,0,1,4.44-.8A41.89,41.89,0,0,0,28.69,37c.48-.13,2.08-.62,2.14-1.59C30.88,34.62,30,34.16,29.3,33.89Z"/></svg>