<svg id="Layer_1" data-name="Layer 1" xmlns="http://www.w3.org/2000/svg" viewBox="0 0 38.85 44.48"><defs><style>.cls-1{fill:#fff;}</style></defs><title>Artboard 1</title><rect class="cls-1" x="7.38" y="21.08" width="2.48" height="1" rx="0.2" transform="translate(-1.83 0.82) rotate(-4.94)"/><rect class="cls-1" x="7.71" y="25" width="2.48" height="1" rx="0.2" transform="translate(-2.16 0.87) rotate(-4.94)"/><path class="cls-1" d="M18.11,13c.35,0,.63-.74.63-1.66s-.28-1.66-.63-1.66-.63.74-.63,1.66S17.76,13,18.11,13Z"/><path class="cls-1" d="M23.13,13c.35,0,.63-.74.63-1.66s-.28-1.66-.63-1.66-.63.74-.63,1.66S22.78,13,23.13,13Z"/><path class="cls-1" d="M16.5,14.94a6,6,0,0,0,4,2,6,6,0,0,0,4-2,7.87,7.87,0,0,1-4,1A7.87,7.87,0,0,1,16.5,14.94Z"/><path class="cls-1" d="M34.13,23.11l.1-1.59h.08A.58.58,0,0,0,34.9,21l.1-2.35a.56.56,0,0,0-.51-.59h-.56v.53L33.79,21h0l-.11,1.69c-.18-.18-.36-.36-.54-.52v-.65a.56.56,0,0,0,.47-.59l-.16-2.36a.56.56,0,0,0-.6-.52h-.42v.18a.56.56,0,0,0-.11.37L32.44,21a.54.54,0,0,0,.16.34v.35a19.49,19.49,0,0,0-5-3.38h0A10.62,10.62,0,1,0,10,8.15L9.64,4.48A2.52,2.52,0,0,0,7.29,2.22V2.17H6.92a2.49,2.49,0,0,0-2.28,2.7v.25A2.51,2.51,0,0,0,.17,7.28L5.9,24.15C3,27.38,1.47,30.49,2.41,31.44c.66.66,2.36.12,4.41-1.24L7.91,42.77a.93.93,0,0,0,.33.64,1,1,0,0,0,.61.22h.08l3.13-.27a1,1,0,0,0,.63-.32,1,1,0,0,1-.3.23.93.93,0,0,0,.47.54,1,1,0,0,0,.41.1,1.61,1.61,0,0,0,.31,0L16.13,43c1.86.14,3.33.57,3.78,1.12V44a4.15,4.15,0,0,0-3.26-3.74L12,26.61c1.28-2.7,3.12-4.81,5.56-5.71a10.27,10.27,0,0,0,2.7.36A10.52,10.52,0,0,0,23,20.89h0c3.9,1.39,6.37,5.77,7.19,10.81.64,3.94-.47,6.81-2.45,8.67A6,6,0,0,0,25.56,40a5,5,0,0,0-4.81,3h0a3.11,3.11,0,0,0-.19,1v.15c.56-.68,2.56-1.17,5-1.17s4.45.5,5,1.17V44A3.94,3.94,0,0,0,28,40.5c2.81-2.11,4.54-5.61,3.73-10.56-.11-.66-.25-1.3-.4-1.93.6.54,1.2,1,1.78,1.46v.7L32.43,42h-.62a.09.09,0,0,0-.08.08s0,.08.07.09h0l.77,0v.47s0,.08.07.09h0a.09.09,0,0,0,.08-.08v-.47h1.33v.46a.08.08,0,1,0,.16,0h0v-.46h.87a.14.14,0,0,0,.18,0A.14.14,0,0,0,35.2,42h0a.09.09,0,0,0-.08-.08h-.67l-.78-11.76v-.31c2.27,1.59,4.18,2.27,4.89,1.57C39.62,30.38,37.64,26.69,34.13,23.11ZM13.07,18.42A13.88,13.88,0,0,0,11,19.64l.29,3.42h0l-.71-8.2A10.66,10.66,0,0,0,13.07,18.42ZM2,4.8a1.84,1.84,0,0,1,.57-.09,1.77,1.77,0,0,1,1.68,1.2l.66,2L6.17,22.66.88,7A1.76,1.76,0,0,1,2,4.8ZM12,42.62l-3.13.27H8.73a.21.21,0,0,1-.07-.14L5.38,4.85a1.77,1.77,0,0,1,.4-1.29A1.83,1.83,0,0,1,6.66,3H7A1.76,1.76,0,0,1,8.9,4.55l3.28,37.86A.21.21,0,0,1,12,42.62Zm.71.4a1.18,1.18,0,0,0,.16-.29,1,1,0,0,1-.17.27Zm3.72-.52.11.31h0ZM11.67,27.85l4.77,14a.22.22,0,0,1,0,.16.26.26,0,0,1-.13.1l-3,1a.19.19,0,0,1-.15,0,.2.2,0,0,1-.11-.11l-.17-.52v.15a.86.86,0,0,0,0-.32L11.63,27.5h0ZM12.78,13a8,8,0,0,1,7.78-8.21h0A8,8,0,0,1,28.36,13h0a8,8,0,0,1-7.78,8.21h0A8,8,0,0,1,12.78,13ZM34,42H32.94l.53-8.15Z"/></svg>