<svg id="Layer_1" data-name="Layer 1" xmlns="http://www.w3.org/2000/svg" viewBox="0 0 277.52 249.87"><defs><style>.cls-1{fill:#fff;}</style></defs><title>Artboard 1</title><path class="cls-1" d="M50.36,94.3c1.29,7.16,1,14.48,2.58,21.65a91,91,0,0,0,91,71.21c42.52-.76,79.42-32.44,87.06-74.8a91.74,91.74,0,0,0,1.33-17.9c8-.1,16-.08,23.95-.34,3.6-.12,3,2.21,3,4.29v76.41c0,18.31-.11,36.63.1,54.94,0,3.79-1,4.63-4.71,4.63q-114.4-.16-228.83,0c-3.87,0-4.59-1.15-4.58-4.75q.18-65.43,0-130.85c0-3.69.87-4.89,4.67-4.73C34,94.41,42.21,94.26,50.36,94.3Z"/><path class="cls-1" d="M75,26.32a10.25,10.25,0,0,1-9.18,4.12,10.65,10.65,0,0,1-7.58-17c5.07-6.66,15.65-4.55,18.3,3.21A10.41,10.41,0,0,1,75,26.32Z"/><path class="cls-1" d="M111.81,125.75c-6.55-2.06-11.5-6.67-17-10.37-1-.68-3-1.25-2.25-2.81,2.55-5.46,2.18-11.35,3-17,.57-3.9,1.38-7.73,2.21-11.57a13.59,13.59,0,0,0,.49-5.67c-.45-2.16-1.92-4.08-3.18-5.84-2.85-4-6.4-7.52-8.85-11.79-2-3.52-1.46-7.69-.93-11.52,1.81-12.6,8.88-21.48,17.81-29.48,1.89-1.7,3.69-3.37,5.53-5.06,2.63-2.41,4.83-5,1.72-8.47-3-3.28-5.63-1.33-8.21.83A126.73,126.73,0,0,0,85.44,24.17c-1.66,2-3.5,4.1-6.1,4.85-.66.19-1.29.38-1.9.58a19.49,19.49,0,0,0-5.84,3c-5.87,4.32-12,7.91-16.79,13.51A71.17,71.17,0,0,0,44,63.8c-1.4,3-1,5.73,2.11,7.23,2.84,1.37,5.18.09,6.65-2.63,1.75-3.21,3.42-6.46,5.19-9.67a23,23,0,0,1,7.89-9c-.08,2.34,0,4.33-1.38,6-6,7.35-11,15.43-16.12,23.43-1.2,1.87-2.08,1.93-3.81.63-5.32-4-10.76-7.79-16.2-11.67-1.11-.77-2.32-2.41-3.84-.68a3.67,3.67,0,0,0-.33,4.64,18.5,18.5,0,0,0,5.65,5.56Q67.43,102.7,105,127.85a9,9,0,0,0,6.14,1.51c1.19-.12,2.51-.5,2.68-1.72S112.68,126,111.81,125.75ZM85.38,84.18l-3.55,22.26C73.69,100.67,66,95.22,58.34,89.82c-1.51-1.07-1.16-2.09-.3-3.35q6-8.86,11.9-17.79c2.27-3.41,4.76-2.62,6.83-.06,2.91,3.61,5.45,7.52,8.2,11.27C86,81.28,85.62,82.71,85.38,84.18Z"/></svg>