<svg id="Layer_1" data-name="Layer 1" xmlns="http://www.w3.org/2000/svg" viewBox="0 0 288.32 269.05"><defs><style>.cls-1{fill:#fff;}</style></defs><title>Artboard 1</title><path class="cls-1" d="M6.72,223l.2-.48c1.79-4,4.43-7.73,6.59-11.51l13.18-23,26-45.33q11.75-20.51,23.57-41c1.51-2.62,3.09-5.94,6.76-4,4,2.13,2,5.33.33,8.14l-26.5,46q-13.26,23-26.5,46l-8.62,15c-1.45,2.53-2.93,5-4.36,7.59a51.33,51.33,0,0,0-3.51,6.38c-1,2.71-.86,6.1,1.91,7.67a11.63,11.63,0,0,0,4.48,1.17c12.4,1.43,24.92.29,37.36.42a5,5,0,0,1,3.11.74,3.65,3.65,0,0,1,1.05,3.44,4,4,0,0,1-1.12,2.37c-1.1,1.05-2.78,1.12-4.3,1.13q-13,0-26.07.12c-6.66,0-15.1,1.53-20.55-3.37A12.7,12.7,0,0,1,6,233.72,19.29,19.29,0,0,1,6.72,223Z"/><path class="cls-1" d="M149.64,3.75l.62.38c3.58,2.33,5.72,6.05,7.88,9.61,2.43,4,4.42,8.23,6.78,12.27q29.42,50.23,58.38,100.73c.25.43.54.84.75,1.29,1.15,2.44,3.66,5.09-.06,7.28s-5.75-.62-7.4-3.48q-19-32.94-38-65.91c-8.7-15.05-17.13-30.31-26.17-45.17-1.88-3.09-3.51-6.43-5.79-9.26A6.27,6.27,0,0,0,144.1,9.4c-2.57-1-5.1,1.24-6.59,3.08-3.54,4.36-5.87,9.34-8.55,14.23-2.79,5.08-5.92,10-8.8,15-1.57,2.75-3.67,4.87-6.71,3.07s-1.84-4.71-.47-7.09c3.48-6,7-12,10.49-18,1.84-3.12,3.64-6.29,5.55-9.36A16.92,16.92,0,0,1,137.18,3,14.67,14.67,0,0,1,149.64,3.75Z"/><path class="cls-1" d="M45.24,265.83c-1.62-1.47-1.69-4.06.79-5.94,2.64-2,6.08-3.27,9-4.85,5.89-3.17,11.64-6.61,17.43-9.94l5-2.89c.55-.32,4.4-3,4.81-2.77L52.79,222.36c-1.43-.84-2.87-1.66-4.31-2.48-2.72-1.57-5.59-3.34-3.37-7,2-3.27,4.81-1.79,7.38-.32Q65,219.8,77.55,226.92c4.47,2.55,9,5,13.44,7.6,5.71,3.36,5.74,6.34.07,9.59q-10.8,6.21-21.62,12.36c-4.13,2.34-8.33,4.87-12.54,7.2C53.81,265.37,48.64,268.91,45.24,265.83Z"/><path class="cls-1" d="M283.57,189.69a3.46,3.46,0,0,1-2.62.64c-2.46-.31-4.65-1.86-6.78-3-2.89-1.58-5.64-3.38-8.52-5l-17.9-9.83c-.5-.27-4.44-2-4.44-2.44v40.82c0,2.8-1.06,5-4.21,5-2.87,0-4-2.2-4.08-4.75-.23-16.14-.47-32.28-.45-48.42,0-4.07,3-5.22,7.15-2.94,12.31,6.77,24.53,13.7,36.83,20.46a29.87,29.87,0,0,1,3.9,2,6,6,0,0,1,2.44,3.49A3.92,3.92,0,0,1,283.57,189.69Z"/><path class="cls-1" d="M194.7,243.05c-21.65,0-43.29,1.27-64.93,1.26-1.82,0-3.65-.12-5.48-.07-2.76.07-4.54-1-4.56-4,0-2.77,1.84-3.73,4.19-4,1.48-.17,3-.11,4.49-.14l133.82-3c7.9-.18,10-3.71,6-10.55-5-8.64-10.28-17.07-15.42-25.61-.85-1.41-1.64-2.87-2.4-4.34a3.45,3.45,0,0,1,1.18-4.73l.1-.06a3.54,3.54,0,0,1,4.95.6,21.62,21.62,0,0,1,2.81,3.45c5.43,8.94,10.87,17.86,16.17,26.87,6.6,11.23.88,22-12.07,22.49-23,.76-45.94,1.23-68.9,1.82C194.7,243.47,194.69,242.63,194.7,243.05Z"/><path class="cls-1" d="M92.56,49.21l.06-1.65c.25-6.42.27-12.82.35-19.24,0-3-1-6.91,4-7s4.11,3.79,4,6.81c-.26,11.15-.66,22.29-1,33.43-.15,6,0,6.09,5.06,3.34l22-12c1.64-.9,3.27-1.82,4.91-2.69s3.09-1.86,4.74-2.54c2.25-.92,5.15-.93,6.3,1.56s.14,4.32-1.92,5.49c-4.6,2.64-9.31,5.09-14,7.59Q113.45,69.6,99.82,76.82c-5.29,2.8-7.92,1.29-7.94-4.58C91.84,64.56,92.24,56.89,92.56,49.21Z"/></svg>