<svg id="Layer_1" data-name="Layer 1" xmlns="http://www.w3.org/2000/svg" viewBox="0 0 114.88 50.8"><defs><style>.cls-1{fill:#fff;}</style></defs><title>Artboard 1</title><path class="cls-1" d="M114.75,50,105,38l-1.69-4.41a.17.17,0,0,0-.13-.07.15.15,0,0,0-.18.11L102.55,35a9.17,9.17,0,0,0-2.67-2.1,3.93,3.93,0,0,0-2.06-.26,5.48,5.48,0,0,0-3.1,1.58,32.76,32.76,0,0,0-3.8,5.54C89.62,38,85.74,32.93,80.22,26L78,20.26l0,0a.21.21,0,0,0-.4,0l-.65,1.69c-1.49-1.84-3.07-3.77-4.72-5.77L71,13a.18.18,0,0,0-.06-.09.14.14,0,0,0-.19.09l-.36.95c-2.54-3-5.22-6.24-8-9.49A17.14,17.14,0,0,0,57.77.56,4.85,4.85,0,0,0,55.7,0,6.05,6.05,0,0,0,53,.57,11.66,11.66,0,0,0,49.43,3.8a210.5,210.5,0,0,0-13,21.25,46.43,46.43,0,0,0-6.39-7.19c-.11-.11-2.84-2.56-5.52-2.41-.08,0-1.92-.26-4.28,2.07-.58.71-1.14,1.43-1.71,2.15L18,18.22H18a.14.14,0,0,0-.21,0l-1.93,5A144.21,144.21,0,0,0,0,50.09a.51.51,0,0,0,.26.67A.5.5,0,0,0,1,50.5,142.86,142.86,0,0,1,15.49,25.35h1.94v.77a.21.21,0,0,0,.21.21h.42a.21.21,0,0,0,.21-.21v-.77h2.32a.14.14,0,0,0,.07-.18L19,20.75c.67-.86,1.34-1.72,2-2.56,1.93-1.91,3.38-1.76,3.48-1.75,2.34-.1,4.89,2.14,4.91,2.16a45.87,45.87,0,0,1,6.71,7.68l.47.68.38-.73c2.81-5.33,5.89-10.57,9.16-15.65l1.9,1.6a4.61,4.61,0,0,0,4.14.67l1.16-.37a3.49,3.49,0,0,1,2.76.26L58,13.91a4.56,4.56,0,0,0,5.19-.49l3-2.94C67.48,12,68.75,13.54,70,15l-1.9,5a.15.15,0,0,0,.15.15h2.25v.76a.21.21,0,0,0,.21.21h.42a.21.21,0,0,0,.21-.21v-.76h2.27a.14.14,0,0,0,.07-.18l-.32-.83q1.65,2,3.17,3.9l-2.78,7.23v.09a.23.23,0,0,0,.22.2h3.21v1.14a.31.31,0,0,0,.31.31h.59a.31.31,0,0,0,.31-.31V30.53h3.37a.22.22,0,0,0,.11-.27l-.43-1.13C87,36.22,90.53,40.85,90.6,40.94l.48.64.37-.71a30.85,30.85,0,0,1,4-6A4.44,4.44,0,0,1,98,33.58a3.13,3.13,0,0,1,1.5.17A8.36,8.36,0,0,1,102.13,36l-1.75,4.57a.15.15,0,0,0,.15.15h2.27v.78a.21.21,0,0,0,.21.21h.42a.21.21,0,0,0,.21-.21v-.78h2.3l8,9.91a.48.48,0,0,0,.39.19.51.51,0,0,0,.31-.11A.5.5,0,0,0,114.75,50ZM62.39,12.54a3.34,3.34,0,0,1-3.78.34l-1.94-1.17A4.74,4.74,0,0,0,53,11.34l-1.16.37a3.42,3.42,0,0,1-3-.46l-2-1.69Q48.47,7,50.25,4.38a10.85,10.85,0,0,1,3.19-2.93A5,5,0,0,1,55.66,1a4.11,4.11,0,0,1,1.63.43,16.42,16.42,0,0,1,4.33,3.68c1.29,1.5,2.55,3,3.8,4.46Z"/><path class="cls-1" d="M69.61,22.34a.19.19,0,0,0-.1-.05.14.14,0,0,0-.19.09l-2.66,6.94a.15.15,0,0,0,.15.15h2.25v.77a.21.21,0,0,0,.21.21h.42a.21.21,0,0,0,.21-.21v-.77h2.26a.14.14,0,0,0,.07-.18Z"/><path class="cls-1" d="M22.35,25.16a.11.11,0,0,0-.09-.05h0a.15.15,0,0,0-.2.08L19.4,32.13a.15.15,0,0,0,.15.15h2.24v.79a.21.21,0,0,0,.21.21h.42a.21.21,0,0,0,.21-.21v-.79h2.3a.14.14,0,0,0,.07-.18Z"/></svg>