<svg id="Layer_1" data-name="Layer 1" xmlns="http://www.w3.org/2000/svg" viewBox="0 0 76.75 62"><defs><style>.cls-1{fill:#fff;}</style></defs><title>Artboard 1</title><path class="cls-1" d="M40.55,17H39.29a1.37,1.37,0,0,0,0,2.74h1.26a1.37,1.37,0,1,0,0-2.74Z"/><path class="cls-1" d="M40.55,21.94H39.29a1.37,1.37,0,1,0,0,2.74h1.26a1.37,1.37,0,0,0,0-2.74Z"/><path class="cls-1" d="M40.55,26.88H39.29a1.37,1.37,0,1,0,0,2.74h1.26a1.37,1.37,0,1,0,0-2.74Z"/><path class="cls-1" d="M66,35.81a1,1,0,0,0,1-1c.09-1.12-.14-1.23,1.27-1.28a1,1,0,0,0,1-1V32.1c.08-.64.21-.77.86-.85a1,1,0,0,0,1-1v-.08A1,1,0,0,0,70,29.33a2.61,2.61,0,0,0-2.52,1.93.59.59,0,0,1-.51.48,2.1,2.1,0,0,0-1.64,1.32A11.68,11.68,0,0,0,65,34.48v.33A1,1,0,0,0,66,35.81Z"/><path class="cls-1" d="M72.72,26.93H72a1,1,0,0,0-.88,1.1.9.9,0,0,0,.09.33,1,1,0,0,0,1.15.52l.37.05a1,1,0,0,0,0-2Z"/><path class="cls-1" d="M75.79,25a6.17,6.17,0,0,0-.86,0,.91.91,0,0,0-.83,1v0a1,1,0,0,0,.88.94h.43V27h.39a1,1,0,0,0,0-2Z"/><path class="cls-1" d="M21,53a1.18,1.18,0,0,0-1.18,1.18h0v1.09a1.18,1.18,0,0,0,2.36,0V54.18A1.18,1.18,0,0,0,21,53Z"/><path class="cls-1" d="M25.3,53a1.18,1.18,0,0,0-1.18,1.18h0v1.09a1.18,1.18,0,0,0,2.36,0V54.18A1.18,1.18,0,0,0,25.3,53Z"/><path class="cls-1" d="M29.56,53a1.18,1.18,0,0,0-1.18,1.18h0v1.09a1.18,1.18,0,0,0,2.36,0V54.18A1.18,1.18,0,0,0,29.56,53Z"/><rect class="cls-1" x="58.3" y="50.93" width="2.29" height="3.34" rx="1.14"/><rect class="cls-1" x="62.43" y="50.93" width="2.29" height="3.34" rx="1.14"/><rect class="cls-1" x="66.55" y="50.93" width="2.29" height="3.34" rx="1.14"/><path class="cls-1" d="M67.44,41.09a2.26,2.26,0,0,0-.62-.44V39.31a.89.89,0,0,0-.89-.89H65.6a.89.89,0,0,0-.89.89v1.12h-5V12.54a1.5,1.5,0,0,0-.47-1.09l-6.9-6.54a1.39,1.39,0,0,0-1-.41h-9.6v-2h1a.5.5,0,0,0,0-1h-1V.5a.5.5,0,0,0-1,0v1h-1a.5.5,0,0,0,0,1h1V4.56a1.56,1.56,0,0,0-.62.3l-6.86,6A1.47,1.47,0,0,0,32.75,12V28.8L27.4,24.46a2.41,2.41,0,0,0-3.21.12L17.8,30.43l-5.3-7.89a1.66,1.66,0,0,0-.74-.74,1.69,1.69,0,0,0-1.25-.09,1.61,1.61,0,0,0-.92.78L.07,36.71a.4.4,0,0,0,.09.56h0a.39.39,0,0,0,.23.07.42.42,0,0,0,.34-.18L10.3,22.9a.86.86,0,0,1,.47-.41.81.81,0,0,1,.63.05,1,1,0,0,1,.39.41l5.54,8.24a.38.38,0,0,0,.09.15h0l3.32,4.94a.41.41,0,0,0,.68-.46L18.25,31.1l6.44-5.94a1.59,1.59,0,0,1,2.12-.07l5.35,4.34a.42.42,0,0,0,.57-.05V46.52l-3.37-3.63a2.15,2.15,0,0,0-.72-.51V41a.92.92,0,0,0-.92-.92H27.4a.92.92,0,0,0-.92.92v1.2H9.23a.39.39,0,0,0-.33.06,2.14,2.14,0,0,0-.85.43l-5.8,5a1.32,1.32,0,0,0-.45,1V60.71A1.29,1.29,0,0,0,3.09,62H32.43a1.29,1.29,0,0,0,1.29-1.29h0V56.4a1.61,1.61,0,0,0,.53.1h6.5v1.88A1.27,1.27,0,0,0,42,59.64H70.39a1.28,1.28,0,0,0,1.26-1.26V46.13a1.3,1.3,0,0,0-.33-.86Zm-2.73.18v1.11a.89.89,0,0,0,.89.89h.33a.89.89,0,0,0,.89-.89v-.71h0l3.52,3.79H54.65a.45.45,0,0,1-.25-.09L49,41.27ZM48.1,40.43h-.35v-28h11v28ZM51.35,5.5a.63.63,0,0,1,.35.13l6.19,5.87H47.57l-5.66-6Zm-24,39.58h.34a.92.92,0,0,0,.92-.92v-.75l.08.06,3.61,3.89H16.09a.62.62,0,0,1-.26-.09l-5.48-4.21H26.48v1.1a.92.92,0,0,0,.92.92ZM2.66,60.71V48.63a.41.41,0,0,1,.15-.33l5.76-4.93A1.22,1.22,0,0,1,9,43.13L15.31,48a1.38,1.38,0,0,0,.48.21v13H10.6a1.23,1.23,0,0,0,.08-.38V52.11a1.26,1.26,0,0,0-1.24-1.24h-1A1.26,1.26,0,0,0,7.2,52.11v8.65a1.23,1.23,0,0,0,.08.38H3.09a.43.43,0,0,1-.43-.43Zm29.77.43H16.75V48.21h16V55a1.55,1.55,0,0,0,.11.56v5.15A.43.43,0,0,1,32.43,61.14Zm8.32-14.52V55.5h-6.5a.5.5,0,0,1-.5-.5V12a.46.46,0,0,1,.18-.38l6.78-5.93,6,6.4V40.92h0l-5.56,4.74A1.29,1.29,0,0,0,40.75,46.62Zm.84,11.76V46.62a.41.41,0,0,1,.14-.31l5.55-4.74a1.24,1.24,0,0,1,.44-.23l6,4.53a.67.67,0,0,0,0,.2l.1,12.43a.48.48,0,0,0,.11.3H49.34a1.53,1.53,0,0,0,.07-.36V50.06a1.2,1.2,0,0,0-1.2-1.2h-1a1.2,1.2,0,0,0-1.2,1.2h0v8.38a1.53,1.53,0,0,0,.07.36H42A.42.42,0,0,1,41.59,58.38Zm28.8.42H54.64a.46.46,0,0,0,.11-.3l-.1-12.21H70.81V58.38A.42.42,0,0,1,70.39,58.8Z"/></svg>