<svg id="Layer_1" data-name="Layer 1" xmlns="http://www.w3.org/2000/svg" viewBox="0 0 48.67 55.29"><defs><style>.cls-1{fill:#fff;}</style></defs><title>Artboard 1</title><path class="cls-1" d="M48.66.38A.51.51,0,0,0,48.05,0L24.33,5.8a2.07,2.07,0,0,0-.49.12L.38,11.64a.51.51,0,0,0-.37.61.5.5,0,0,0,.49.38H.62L22.49,7.28a2.26,2.26,0,0,0,1.86,3.06v8H10.21a4.78,4.78,0,0,0-4.7,4.75V37.28a1.51,1.51,0,0,0,.11.56h-.1l3.87,9.45a2.46,2.46,0,0,0,2.26,1.54h11.7V51.4H13.86l-.13,0A2.54,2.54,0,0,0,11.25,54v.12a1.22,1.22,0,0,0,1.23,1.22h23A1.3,1.3,0,0,0,36.78,54a2.59,2.59,0,0,0-2.59-2.59H24.35V48.83H36.86a2.44,2.44,0,0,0,2.2-1.55l3.65-9.11a1.35,1.35,0,0,0,.26-.81V23.09a4.75,4.75,0,0,0-4.75-4.75H25.35V10.25a2.29,2.29,0,0,0,.84-3.87L48.29,1A.51.51,0,0,0,48.66.38ZM35.92,54a.44.44,0,0,1-.44.44h-23a.35.35,0,0,1-.35-.36V54a1.68,1.68,0,0,1,1.67-1.68l20.39,0A1.74,1.74,0,0,1,35.92,54ZM11.67,47.83a1.49,1.49,0,0,1-1.36-.91L7,38.82l16.35,0v5h-11a.5.5,0,0,0,0,1h11v3Zm26.47-.91a1.42,1.42,0,0,1-1.29.91H24.35v-3h12a.5.5,0,1,0,0-1h-12v-5l14.19,0h2.87ZM42,23.09V37.36a.44.44,0,0,1-.36.42H7a.51.51,0,0,1-.51-.51V23.09a3.8,3.8,0,0,1,3.73-3.77h28A3.77,3.77,0,0,1,42,23.09Z"/></svg>