<svg id="Layer_1" data-name="Layer 1" xmlns="http://www.w3.org/2000/svg" viewBox="0 0 70.42 42.89"><defs><style>.cls-1{fill:#4db6be;}</style></defs><title>Artboard 1</title><path class="cls-1" d="M67.16,32.37s0-.08,0-.12L58.21,9a1,1,0,0,0-.59-.59,1,1,0,0,0-.76,0,1,1,0,0,0-.51.55l-4,10.55-2.14-5.6,0,0a.82.82,0,0,0-.53-.45.81.81,0,0,0-1,.53l-4,10.45c-2-3.46-5-5.54-8.37-5.54a9.09,9.09,0,0,0-6.88,3.47,4,4,0,0,1-1.68,1.21l.3.76a4.74,4.74,0,0,0,2-1.46,8.25,8.25,0,0,1,6.25-3.16c3.19,0,6.14,2.16,8,5.72l-.47,1.24-.53-.42a18,18,0,0,0-2.59-2.1c-.42-.23-.5-.22-.78.15a1.36,1.36,0,0,1-1.38.54,1.65,1.65,0,0,1-1.33-1.31c-.14-.43-.16-.42-.59-.28a13.8,13.8,0,0,0-3.38,1.61c-.59.39-1.2.75-1.82,1.09a2.29,2.29,0,0,0-1.08,1.25c-.31.73-.67,1.44-1,2.15-.11.23-.24.46-.38.73l-4.59-.27h-.13v-.64h4.45a.81.81,0,0,0,.31-.06A.83.83,0,0,0,29.4,28L23.56,12.81a.84.84,0,0,0-.48-.48.81.81,0,0,0-.63,0,.84.84,0,0,0-.43.46l-3.06,8L11.27.76a1,1,0,0,0-1.85,0L.49,24a1,1,0,0,0,.23,1.08.91.91,0,0,0,.69.28H7.54C3,28.67,0,33.77.09,39.23a.41.41,0,0,0,.41.41h0a.42.42,0,0,0,.4-.42c-.07-5.4,3-10.43,7.62-13.53v2.75a.71.71,0,0,0,.71.71h1.38a.71.71,0,0,0,.71-.71V25.63a.6.6,0,0,0-.05-.24h8a.86.86,0,0,0,.36-.07,1,1,0,0,0,.55-.53,1,1,0,0,0,0-.75l-.72-1.87,3.3-8.57,5.58,14.55H17.19l1-2.73H17.17l-1,2.6a1.13,1.13,0,0,0-.05.32.82.82,0,0,0,.81.81h4.46v.47l-5.72-.35a4.85,4.85,0,0,1-.75-.19l-.46.18.46.24a3.42,3.42,0,0,1,.63-.09l5.84.4v1.9a.71.71,0,0,0,.71.71h1.38a.71.71,0,0,0,.71-.71V30l4.52.31c.26,0,.42.06.42.36a.38.38,0,0,0,.22.27,9.93,9.93,0,0,0,1.22.16,1.19,1.19,0,0,0,.26-.05.85.85,0,0,0,.49-1.1,1,1,0,0,1,.15-1.3.9.9,0,0,0,.14-.2,1.52,1.52,0,0,1,1.22-.89c.37-.08.74-.18,1.1-.29a3.71,3.71,0,0,1-.16.47,3.15,3.15,0,0,0,.15,3.33,1.87,1.87,0,0,0,.77.78l1.78.88a1,1,0,0,1,.42.29c.42.69.81,1.4,1.25,2.17L38,35.13c-.3-.46-.94-.11-1.3-.46,0-.06-.12,0-.12,0l-.8.59.22.22c1.15.62,2.33,1.21,3.45,1.88,2.83,1.7,5.64,3.44,8.46,5.17.57.35.63.34,1.09-.14s.45-.46,1.09-.22a1,1,0,0,0,.72,0,2.53,2.53,0,0,0,1-1.17l-.39-.15c-2-.72-3.85-1.46-5.85-2.13a5.67,5.67,0,0,1-2.36-1.45,2.06,2.06,0,0,1-.25-.4c-.24-.72-.45-1.46-.7-2.18a4,4,0,0,0-.45-.93c-.75-1.09-1.53-2.15-2.27-3.25a12.27,12.27,0,0,1-.69-1.35.58.58,0,0,1,.08-.65c.41-.55.81-1.1,1.19-1.67.15-.23.27-.24.5-.1l2.56,1.51-.36.93a.78.78,0,0,0-.06.31.83.83,0,0,0,.82.81h3c.3.64.59,1.28.88,1.92v0a1.1,1.1,0,0,0-.06.37,1,1,0,0,0,.67.91l0,0a3.9,3.9,0,0,1,.13.57.55.55,0,0,0,.13.17.36.36,0,0,0,.22-.11c.08,0,0-.14,0-.2a2.88,2.88,0,0,1-.3-.39l0,0a.5.5,0,0,0,.13,0H56a.73.73,0,0,0-.07.3v2.81a.71.71,0,0,0,.71.71H58a.71.71,0,0,0,.71-.71V33.9a.73.73,0,0,0-.07-.3h7.61a1.15,1.15,0,0,0,.36-.07,1,1,0,0,0,.61-.82,1,1,0,0,1-.24.6,9.42,9.42,0,0,1,2.65,6.3A.42.42,0,0,0,70,40h0a.42.42,0,0,0,.4-.42A10.29,10.29,0,0,0,67.16,32.37Zm-65.74-8L10.34,1.12l8.94,23.27Zm48-9.66,2.36,6.17L48.55,29.3H46.79s0,0,0,0a.43.43,0,0,0,0-.11.77.77,0,0,0-.64-.89,1.21,1.21,0,0,1-.58-.16c-.34-.26-.68-.54-1-.81ZM44,28.76l.26.15a4,4,0,0,0,1,.37l.09,0H43.82Zm2.78,1.65a.36.36,0,0,1,0-.11h1.41L47.52,32C47.28,31.47,47.05,30.94,46.8,30.41Zm1.56,2.19L57.27,9.33,66.21,32.6Z"/><path class="cls-1" d="M39.68,24.08a2.4,2.4,0,0,0,.46-2.58,1.19,1.19,0,0,0-.3-.46,1.2,1.2,0,0,0-1.7.05A2.45,2.45,0,0,0,37.35,23a4.85,4.85,0,0,0,.16.63,1.21,1.21,0,0,0,.44.7A1.24,1.24,0,0,0,39.68,24.08Z"/></svg>