<svg id="Layer_1" data-name="Layer 1" xmlns="http://www.w3.org/2000/svg" viewBox="0 0 114.88 53.44"><defs><style>.cls-1,.cls-2,.cls-4{fill:none;stroke-miterlimit:10;}.cls-1,.cls-4{stroke:#4db6be;}.cls-1,.cls-2{stroke-linecap:round;}.cls-2{stroke:#4db6be;}.cls-3{fill:#4db6be;}.cls-4{stroke-width:0.7px;}</style></defs><title>piste_variety</title><path class="cls-1" d="M5.55,59A143.28,143.28,0,0,1,25.7,26.5c2.17-2.15,3.81-1.9,3.81-1.9,2.59-.12,5.27,2.29,5.27,2.29a46.31,46.31,0,0,1,6.78,7.72A207.41,207.41,0,0,1,54.88,12.76a11.2,11.2,0,0,1,3.4-3.14,5.44,5.44,0,0,1,2.45-.47,4.54,4.54,0,0,1,1.86.53,16.77,16.77,0,0,1,4.49,3.75c16.36,19.11,29,35.86,29,35.86a31.75,31.75,0,0,1,4.1-6.15A4.92,4.92,0,0,1,103,41.76a3.5,3.5,0,0,1,1.8.22,8.79,8.79,0,0,1,3.12,2.73L119.43,59" transform="translate(-5.05 -8.65)"/><path class="cls-2" d="M52.16,29.45c0,4.38-4.61,8.47-5.71,9.38-.17.14-.35.29-.51.45-6.79,6.33-7.47,11.88-7.47,11.88" transform="translate(-5.05 -8.65)"/><path class="cls-2" d="M68.11,23c-6.41,2.85-7.87,4.5-7.87,4.5-3.07,3,.53,5.28.53,5.28C64.33,34.56,69.33,34,69.33,34A6.8,6.8,0,0,1,74,36a3.29,3.29,0,0,1,.5,4.19,6.72,6.72,0,0,1-2.18,2c-4.4,3.58-4.18,5.25-4.18,5.25.14,2.87,3.18,3.31,3.18,3.31a28.51,28.51,0,0,0,4.76.53c3.11.14,5.2,3.19,5.2,3.19" transform="translate(-5.05 -8.65)"/><path class="cls-2" d="M26.27,41.17C32.68,42.34,34.14,43,34.14,43c3.07,1.22-.53,2.17-.53,2.17a41.79,41.79,0,0,1-8.56.52,12.75,12.75,0,0,0-4.64.83c-1.14.45-1.38,1.18-.5,1.72a8.48,8.48,0,0,0,2.18.81c4.4,1.47,4.18,2.16,4.18,2.16-.14,1.18-3.18,1.36-3.18,1.36-2.79.22-4.76.22-4.76.22a11.37,11.37,0,0,0-5.2,1.31" transform="translate(-5.05 -8.65)"/><path class="cls-2" d="M72.57,43.8" transform="translate(-5.05 -8.65)"/><circle class="cls-3" cx="23.85" cy="24.19" r="2.89"/><circle class="cls-3" cx="54.79" cy="10.6" r="2.84"/><circle class="cls-3" cx="53.79" cy="50.6" r="2.84"/><polyline class="cls-4" points="23.85 24.19 53.79 50.6 54.79 10.6"/></svg>