<svg id="Layer_1" data-name="Layer 1" xmlns="http://www.w3.org/2000/svg" viewBox="0 0 114.88 50.8"><defs><style>.cls-1,.cls-2{fill:none;stroke:#4db6be;stroke-miterlimit:10;}.cls-1{stroke-linecap:round;}.cls-2{stroke-width:1.19px;}.cls-3{fill:#4db6be;}</style></defs><title>Artboard 1</title><path class="cls-1" d="M.5,50.3A143.19,143.19,0,0,1,20.65,17.84c2.17-2.15,3.81-1.9,3.81-1.9,2.59-.12,5.27,2.29,5.27,2.29A46.15,46.15,0,0,1,36.51,26,208.4,208.4,0,0,1,49.84,4.09,11.23,11.23,0,0,1,53.23,1,5.44,5.44,0,0,1,55.68.5,4.48,4.48,0,0,1,57.54,1,17,17,0,0,1,62,4.78C78.39,23.89,91,40.64,91,40.64a31.68,31.68,0,0,1,4.1-6.15,4.88,4.88,0,0,1,2.79-1.4,3.46,3.46,0,0,1,1.8.22,8.78,8.78,0,0,1,3.12,2.78l11.55,14.25"/><path class="cls-2" d="M46,9.7l2.36,2a4,4,0,0,0,3.61.58l1.16-.37a4.1,4.1,0,0,1,3.25.32l1.92,1.16A3.93,3.93,0,0,0,62.77,13l3.37-3.31"/><path class="cls-3" d="M71,13l2.66,6.94a.14.14,0,0,1-.09.19H68.23a.15.15,0,0,1-.15-.15.09.09,0,0,1,0,0L70.75,13a.15.15,0,0,1,.19-.09A.2.2,0,0,1,71,13Z"/><rect class="cls-3" x="70.48" y="19.84" width="0.84" height="1.26" rx="0.21"/><path class="cls-3" d="M69.61,22.34l2.62,6.94a.14.14,0,0,1-.09.19H66.81a.15.15,0,0,1-.15-.15.09.09,0,0,1,0,0l2.66-6.94a.15.15,0,0,1,.19-.09A.2.2,0,0,1,69.61,22.34Z"/><rect class="cls-3" x="69.06" y="29.19" width="0.84" height="1.26" rx="0.21"/><path class="cls-3" d="M103.35,33.63,106,40.57a.14.14,0,0,1-.09.19h-5.38a.15.15,0,0,1-.15-.15.09.09,0,0,1,0,0l2.66-6.94a.15.15,0,0,1,.18-.11A.15.15,0,0,1,103.35,33.63Z"/><rect class="cls-3" x="102.8" y="40.49" width="0.84" height="1.26" rx="0.21"/><path class="cls-3" d="M18,18.22l2.66,6.94a.14.14,0,0,1-.09.19H15.23a.15.15,0,0,1-.15-.15.09.09,0,0,1,0-.05l2.66-6.94a.15.15,0,0,1,.21,0Z"/><rect class="cls-3" x="17.43" y="25.07" width="0.84" height="1.26" rx="0.21"/><path class="cls-3" d="M22.35,25.16,25,32.09a.14.14,0,0,1-.09.19H19.55a.15.15,0,0,1-.15-.15.09.09,0,0,1,0,0l2.66-6.94a.15.15,0,0,1,.2-.08A.14.14,0,0,1,22.35,25.16Z"/><rect class="cls-3" x="21.79" y="32.02" width="0.84" height="1.26" rx="0.21"/><path class="cls-3" d="M78,20.26l3.85,10a.21.21,0,0,1-.11.27.15.15,0,0,1-.09,0h-7.7a.22.22,0,0,1-.22-.2.29.29,0,0,1,0-.09l3.85-10a.21.21,0,0,1,.4,0Z"/><rect class="cls-3" x="77.16" y="30.16" width="1.21" height="1.82" rx="0.31"/></svg>